<?xml version="1.0" standalone="no"?>
<!DOCTYPE svg PUBLIC "-//W3C//DTD SVG 20010904//EN"
 "http://www.w3.org/TR/2001/REC-SVG-20010904/DTD/svg10.dtd">
<svg version="1.0" xmlns="http://www.w3.org/2000/svg"
 width="640.000000pt" height="427.000000pt" viewBox="0 0 640.000000 427.000000"
 preserveAspectRatio="xMidYMid meet">

<g transform="translate(0.000000,427.000000) scale(0.100000,-0.100000)"
fill="#000000" stroke="none">
<path d="M500 4266 c0 -20 137 -296 143 -289 3 3 3 -4 0 -15 -2 -11 0 -23 6
-26 6 -4 11 -15 11 -25 0 -9 7 -26 16 -37 15 -18 15 -18 11 4 -4 15 -1 22 6
19 17 -5 21 -38 6 -48 -10 -6 -11 -11 -3 -19 9 -9 13 -5 18 14 4 16 13 26 24
26 23 0 50 -67 41 -100 -5 -21 -7 -22 -13 -8 -4 9 -13 15 -20 12 -7 -3 -18 5
-24 18 l-12 23 6 -25 c7 -32 32 -88 42 -94 12 -7 81 18 87 32 3 7 0 22 -5 32
-6 10 -10 28 -10 39 0 13 -7 21 -17 21 -17 1 -17 1 0 11 14 9 22 7 32 -8 8
-10 15 -27 15 -39 0 -32 18 -44 46 -32 13 6 24 15 24 20 0 20 50 3 177 -63
135 -70 188 -110 179 -135 -3 -8 1 -11 9 -8 9 4 12 0 8 -14 -2 -11 0 -23 6
-26 7 -5 11 1 11 14 0 16 4 20 16 16 9 -3 18 -6 20 -6 2 0 4 -8 4 -18 0 -10 5
-23 11 -29 7 -7 8 -24 4 -45 -7 -28 -9 -30 -15 -13 -4 11 -5 27 -3 35 4 12 3
13 -5 1 -11 -16 5 -74 18 -66 4 3 6 -4 3 -15 -7 -25 9 -26 22 -1 6 10 25 43
42 72 18 30 33 56 33 59 0 5 -34 23 -335 180 -77 40 -162 85 -190 100 -154 84
-276 141 -287 134 -7 -4 -6 1 3 12 9 10 25 29 35 42 10 12 23 22 29 22 11 0
249 -137 295 -170 14 -10 41 -26 60 -37 82 -46 231 -134 308 -182 88 -54 98
-58 104 -39 3 8 17 6 46 -7 45 -20 52 -35 27 -55 -21 -17 -15 -54 9 -58 24 -5
39 11 40 44 1 15 7 29 14 32 18 6 14 -27 -8 -73 -11 -22 -19 -44 -20 -49 0 -9
-59 -106 -70 -116 -3 -3 -18 -24 -33 -47 -64 -100 -223 -236 -368 -316 -58
-32 -67 -34 -81 -21 -13 13 -18 12 -42 -7 -15 -12 -35 -19 -46 -16 -12 3 -28
-6 -46 -24 -15 -16 -46 -41 -68 -56 -23 -15 -43 -31 -46 -34 -16 -19 -209
-112 -285 -138 -126 -42 -311 -68 -364 -53 -22 7 -42 20 -44 30 -4 13 -5 12
-6 -5 -1 -15 7 -24 26 -30 23 -8 18 -11 -45 -22 -40 -7 -75 -18 -78 -23 -5 -7
5 -9 27 -5 19 3 86 13 149 22 335 47 488 104 686 252 71 53 104 65 104 39 0
-30 -119 -117 -260 -189 -52 -27 -86 -46 -75 -44 11 3 63 15 115 27 111 26
150 39 150 51 0 5 6 9 13 9 14 0 49 33 45 41 -2 2 -1 3 1 2 2 -2 10 2 16 7 7
6 39 15 71 21 33 5 67 12 77 15 11 4 17 0 17 -10 0 -13 5 -11 22 6 13 13 22
28 20 34 -4 18 20 31 66 37 53 6 61 13 38 30 -17 12 -15 16 21 46 21 18 52 46
70 63 23 21 38 28 52 23 12 -3 21 -3 21 2 0 5 23 32 50 61 28 29 50 59 50 67
0 17 38 35 72 35 20 0 20 -4 14 -80 -7 -76 -3 -92 20 -71 5 5 26 14 46 20 30
10 36 15 28 29 -67 128 -88 205 -64 229 8 8 14 21 14 29 0 8 5 14 10 14 6 0
10 9 10 21 0 16 4 19 23 14 17 -5 18 -4 7 4 -8 5 -11 13 -7 17 4 4 13 2 19 -4
7 -7 21 -12 33 -12 11 0 39 -11 63 -25 23 -13 42 -20 42 -14 0 5 9 9 20 9 11
0 20 -7 20 -15 0 -9 -6 -12 -15 -9 -8 4 -15 2 -15 -4 0 -5 7 -12 15 -16 10 -3
17 3 21 19 5 19 13 25 33 25 22 0 30 9 55 63 47 101 63 119 100 112 46 -8 -72
37 -299 115 -110 37 -252 87 -315 110 -63 23 -189 68 -280 100 -91 32 -210 75
-265 95 -55 20 -113 41 -128 47 -66 24 -9 16 128 -17 81 -20 151 -35 157 -33
10 4 -241 64 -426 103 -25 5 -28 9 -23 33 3 15 19 57 36 94 17 36 31 69 31 72
0 3 -52 6 -115 6 -63 0 -115 -2 -115 -4z m88 -83 c-9 -2 -18 -12 -20 -21 -3
-14 -5 -13 -9 3 -5 17 -1 21 20 22 14 0 18 -1 9 -4z m82 -189 c0 -3 -7 -1 -15
6 -8 7 -15 17 -15 22 0 5 7 3 15 -6 8 -8 15 -18 15 -22z m1024 -472 c6 -11
-45 -130 -80 -187 -77 -123 -183 -246 -275 -321 -82 -66 -243 -159 -259 -149
-18 11 -11 26 18 38 132 58 321 220 425 364 34 46 105 180 128 241 8 21 33 30
43 14z"/>
<path d="M2690 4237 c-19 -18 -100 -87 -180 -153 -80 -67 -158 -133 -175 -148
-16 -15 -63 -54 -103 -87 -40 -32 -70 -59 -65 -59 4 0 33 20 62 44 52 43 79
51 67 20 -3 -8 -4 -14 -3 -14 1 0 38 34 82 76 44 42 95 82 112 89 35 15 142
116 188 178 15 21 30 36 32 33 4 -4 53 41 53 49 0 16 -40 0 -70 -28z"/>
<path d="M5356 4241 c20 -38 18 -47 -16 -61 -44 -18 -57 -37 -38 -56 14 -14
20 -14 57 6 24 12 54 20 69 18 22 -2 28 -10 34 -43 5 -22 18 -48 29 -57 12
-10 17 -18 13 -18 -13 1 -140 35 -218 59 -38 12 -79 21 -92 21 -14 0 -36 7
-49 16 -14 9 -25 13 -25 10 0 -26 111 -92 137 -82 8 3 24 1 36 -5 l21 -12 -23
-18 c-30 -25 -25 -32 113 -167 76 -75 122 -112 133 -110 40 8 78 -95 53 -142
-6 -12 -9 -24 -6 -27 2 -3 12 12 21 33 15 35 15 44 1 89 -27 88 -40 139 -43
160 -1 11 -5 45 -8 75 -6 46 -4 59 13 78 11 12 25 42 32 66 10 37 9 48 -4 75
-9 17 -27 33 -41 37 -28 7 -33 22 -10 30 8 4 15 12 15 20 0 10 -6 11 -26 4
-36 -14 -52 -12 -31 4 23 18 21 26 -6 26 -20 0 -23 -4 -19 -30 3 -24 1 -30
-15 -30 -23 0 -43 18 -43 41 0 12 -9 16 -39 16 -38 0 -38 0 -25 -26z m64 -37
c0 -8 -4 -12 -10 -9 -5 3 -10 10 -10 16 0 5 5 9 10 9 6 0 10 -7 10 -16z m6
-200 c56 -16 98 -33 103 -43 11 -21 22 -151 13 -151 -14 1 -232 220 -219 220
4 0 50 -12 103 -26z"/>
<path d="M5828 4254 c-29 -16 -98 -91 -98 -108 0 -5 -6 -17 -14 -25 -7 -9 -24
-47 -37 -86 -19 -59 -23 -91 -24 -201 0 -73 -4 -130 -9 -127 -4 3 -5 -13 -1
-37 6 -35 4 -45 -16 -66 l-23 -24 31 6 c17 3 41 1 54 -6 24 -13 24 -12 6 7
-17 20 -16 23 34 109 52 90 159 308 159 324 0 5 6 15 13 22 7 7 30 47 51 87
l39 75 -38 33 c-42 36 -80 41 -127 17z"/>
<path d="M5615 4230 c-3 -4 2 -13 10 -20 15 -13 45 -7 45 9 0 11 -49 21 -55
11z"/>
<path d="M5239 4209 c-20 -20 -20 -22 -5 -31 13 -8 24 -4 42 13 13 12 24 26
24 31 0 16 -40 8 -61 -13z"/>
<path d="M6180 4214 c0 -8 9 -14 20 -14 11 0 20 4 20 9 0 5 -9 11 -20 14 -13
3 -20 0 -20 -9z"/>
<path d="M6030 4181 c16 -31 83 -81 107 -81 34 0 28 10 -31 58 -58 45 -95 57
-76 23z"/>
<path d="M4453 4064 c-15 -20 -40 -51 -54 -68 -49 -61 -130 -178 -126 -182 3
-3 15 9 27 25 23 34 54 40 64 14 7 -18 -33 -63 -55 -63 -7 0 -27 -11 -46 -26
-36 -27 -42 -22 -17 14 31 45 6 20 -39 -38 -48 -61 -58 -84 -34 -74 10 3 13
-7 13 -43 -1 -40 2 -48 19 -50 11 -1 14 0 8 3 -22 10 -14 22 22 40 37 17 46
34 19 34 -8 0 -13 -4 -10 -9 7 -11 -22 -23 -35 -15 -17 10 -9 20 44 48 28 15
73 40 98 55 56 35 89 46 89 32 0 -6 -17 -19 -37 -29 -21 -9 -47 -25 -58 -35
-11 -11 -30 -23 -42 -28 -13 -5 -23 -13 -23 -19 0 -13 6 -13 31 0 17 9 19 7
19 -18 0 -15 -5 -33 -10 -38 -12 -12 -3 -44 11 -44 5 0 9 -11 9 -25 0 -19 16
-36 68 -74 37 -28 74 -50 81 -51 8 0 28 -12 43 -27 l28 -27 0 56 c0 31 -4 68
-10 82 -5 14 -12 56 -15 93 -6 60 -5 66 8 51 18 -22 26 -22 49 -1 17 15 18 14
19 -15 4 -99 7 -133 17 -192 7 -36 15 -77 18 -92 5 -23 3 -28 -14 -28 -23 0
-47 -25 -38 -39 8 -13 199 -150 245 -177 27 -15 35 -16 39 -6 2 8 17 28 31 45
61 71 185 241 186 256 1 9 6 24 10 34 4 10 2 24 -5 32 -16 20 4 20 23 1 13
-13 18 -11 39 12 28 32 78 99 78 106 0 11 -69 46 -82 41 -8 -3 -26 3 -39 15
l-24 20 28 -10 c41 -15 46 -12 12 7 -16 9 -47 29 -68 45 -23 19 -35 24 -31 14
6 -14 3 -14 -25 1 -17 10 -26 20 -21 21 6 2 10 8 10 14 0 6 -8 7 -17 4 -22 -9
-85 25 -78 42 2 7 -1 12 -9 10 -7 -2 -87 47 -179 107 -126 84 -167 116 -172
136 -3 14 -19 36 -35 47 l-29 22 -28 -36z m50 -66 c12 -7 24 -14 27 -16 10 -7
-26 -22 -52 -22 -16 0 -28 -3 -28 -7 0 -3 25 -51 55 -105 30 -54 55 -101 55
-105 0 -3 6 -14 14 -22 8 -9 17 -28 21 -42 8 -34 -18 -46 -51 -24 -20 13 -22
19 -13 33 11 18 -11 67 -104 230 -30 53 -24 106 7 68 7 -9 19 -11 36 -6 16 5
19 8 8 9 -10 1 -18 6 -18 11 0 14 16 13 43 -2z m57 -58 c0 -5 -4 -10 -10 -10
-5 0 -10 5 -10 10 0 6 5 10 10 10 6 0 10 -4 10 -10z m160 -69 c0 -7 37 -35
146 -109 36 -24 44 -42 18 -42 -18 0 -155 84 -188 115 -11 11 -26 19 -32 17
-17 -3 -26 28 -14 43 9 11 17 10 40 -2 17 -8 30 -18 30 -22z m-170 -21 c0 -5
-4 -10 -10 -10 -5 0 -10 5 -10 10 0 6 5 10 10 10 6 0 10 -4 10 -10z m138 -51
c34 -17 62 -37 62 -45 0 -8 -1 -14 -3 -14 -1 0 -17 -4 -34 -9 -31 -9 -34 -7
-68 40 -51 72 -48 74 43 28z m-290 4 c-3 -19 -148 -114 -161 -106 -15 9 -2 22
73 72 82 55 93 59 88 34z m245 -56 c7 -7 22 -31 34 -53 19 -35 25 -39 55 -36
39 3 95 -11 88 -22 -3 -4 10 -14 28 -21 50 -22 39 -35 -28 -35 -44 0 -60 -4
-60 -14 0 -19 25 -37 41 -31 8 3 21 1 29 -5 12 -8 11 -13 -9 -34 l-23 -24 21
-21 c12 -12 21 -26 21 -33 0 -19 -42 -58 -63 -58 -26 0 -57 28 -57 51 0 10 -5
30 -12 44 -15 33 -5 41 24 21 25 -18 42 -21 33 -6 -3 6 1 13 9 16 28 11 17 26
-12 19 -25 -5 -32 -1 -54 32 -70 106 -119 196 -114 209 7 18 34 18 49 1z m183
-30 c16 -6 40 -19 54 -28 14 -9 55 -33 92 -55 69 -40 79 -53 54 -73 -20 -17
-229 115 -234 147 -4 26 -3 26 34 9z m164 -59 c0 -6 -7 -5 -15 2 -8 7 -15 17
-15 22 0 6 7 5 15 -2 8 -7 15 -17 15 -22z m-600 2 c0 -5 -4 -10 -10 -10 -5 0
-10 5 -10 10 0 6 5 10 10 10 6 0 10 -4 10 -10z m97 -92 c-2 -13 -4 -5 -4 17
-1 22 1 32 4 23 2 -10 2 -28 0 -40z m-48 -34 c2 -2 -2 -11 -10 -20 -12 -14
-14 -14 -26 2 -19 26 -16 36 10 28 12 -3 24 -8 26 -10z m211 -16 c0 -16 -3
-19 -11 -11 -6 6 -8 16 -5 22 11 17 16 13 16 -11z m-160 -8 c0 -12 -28 -25
-36 -17 -9 9 6 27 22 27 8 0 14 -5 14 -10z m577 -6 c-3 -3 -12 -4 -19 -1 -8 3
-5 6 6 6 11 1 17 -2 13 -5z m5 -74 c-2 -14 -12 -31 -23 -39 -11 -8 -58 -62
-104 -120 -131 -164 -121 -155 -145 -138 -18 13 -19 16 -5 27 8 7 15 17 15 22
0 8 41 59 167 207 12 14 22 31 23 38 0 16 31 33 55 30 15 -1 19 -8 17 -27z
m-172 -111 c0 -5 -9 -9 -20 -9 -22 0 -27 16 -7 23 15 5 27 -1 27 -14z m-140 1
c0 -13 -11 -13 -30 0 -12 8 -11 10 8 10 12 0 22 -4 22 -10z m80 -67 c-1 -13
-70 -86 -76 -81 -3 3 -2 17 1 30 8 30 76 76 75 51z"/>
<path d="M5000 3395 c-8 -9 -8 -15 -2 -15 12 0 26 19 19 26 -2 2 -10 -2 -17
-11z"/>
<path d="M1148 3953 c7 -3 16 -2 19 1 4 3 -2 6 -13 5 -11 0 -14 -3 -6 -6z"/>
<path d="M1200 3940 c14 -4 32 -8 40 -9 13 -1 13 0 0 9 -8 5 -26 9 -40 9 l-25
-1 25 -8z"/>
<path d="M1370 3900 c63 -16 135 -31 160 -34 49 -6 -46 21 -175 49 -118 25
-107 15 15 -15z"/>
<path d="M6072 3894 c3 -11 9 -26 12 -34 5 -11 -1 -15 -21 -16 -68 -4 -149
-18 -155 -28 -12 -18 -9 -68 8 -116 8 -24 13 -52 11 -62 -3 -10 -1 -18 4 -18
16 0 36 -53 62 -165 14 -60 29 -125 33 -143 10 -55 40 -61 115 -20 41 22 63
39 61 48 -2 8 -16 65 -32 125 -15 61 -33 140 -40 178 -7 37 -16 69 -20 72 -17
10 -60 -14 -54 -30 4 -9 1 -15 -9 -15 -8 0 -18 7 -21 16 -5 12 -16 15 -41 12
-39 -4 -46 6 -15 22 11 6 20 17 20 25 0 15 30 28 51 21 8 -2 26 -7 40 -10 24
-5 25 -3 21 27 l-4 32 32 -33 c18 -18 35 -30 38 -28 7 8 -72 149 -87 154 -10
3 -12 -1 -9 -14z"/>
<path d="M1645 3839 c17 -4 112 -26 213 -49 100 -22 190 -43 200 -47 15 -5 15
-4 2 9 -8 9 -67 27 -130 42 -173 38 -376 71 -285 45z"/>
<path d="M5225 3810 c3 -5 8 -10 11 -10 2 0 4 5 4 10 0 6 -5 10 -11 10 -5 0
-7 -4 -4 -10z"/>
<path d="M4930 3775 c0 -13 31 -36 41 -33 7 2 0 12 -15 21 -14 10 -26 15 -26
12z"/>
<path d="M5225 3770 c-3 -5 1 -10 10 -10 9 0 13 5 10 10 -3 6 -8 10 -10 10 -2
0 -7 -4 -10 -10z"/>
<path d="M5190 3760 c0 -5 5 -10 10 -10 6 0 10 5 10 10 0 6 -4 10 -10 10 -5 0
-10 -4 -10 -10z"/>
<path d="M2096 3738 c-21 -17 -20 -17 33 -15 36 1 56 -3 59 -11 4 -13 72 -17
72 -4 -1 19 -20 29 -79 38 -56 9 -66 8 -85 -8z"/>
<path d="M4128 3635 c-19 -26 -22 -35 -10 -35 7 0 34 51 29 56 -1 1 -10 -8
-19 -21z"/>
<path d="M1491 3519 c-12 -28 -20 -53 -18 -55 2 -3 14 18 26 47 12 28 20 53
18 55 -2 3 -14 -18 -26 -47z"/>
<path d="M912 3435 l1 -130 9 81 c5 50 5 101 0 130 -8 41 -10 27 -10 -81z"/>
<path d="M5601 3542 c-6 -12 -11 -28 -11 -36 0 -10 -6 -13 -17 -9 -32 12 -1
-19 33 -33 42 -18 53 -18 30 -1 -15 11 -17 17 -7 35 9 18 9 27 -3 43 l-14 21
-11 -20z"/>
<path d="M1331 3504 c0 -11 3 -14 6 -6 3 7 2 16 -1 19 -3 4 -6 -2 -5 -13z"/>
<path d="M5311 3485 c-1 -46 -14 -74 -26 -55 -7 12 -48 7 -96 -11 -38 -15 -53
-53 -33 -84 9 -14 17 -25 18 -25 14 0 114 35 124 43 9 7 17 5 27 -9 8 -10 15
-23 15 -27 0 -5 23 -42 52 -83 42 -60 59 -76 88 -84 45 -12 65 -45 57 -94 -4
-26 -2 -38 9 -44 9 -5 23 -21 33 -36 l18 -27 64 43 c63 42 79 67 49 75 -12 4
-12 2 -2 -5 10 -7 7 -13 -13 -26 -33 -22 -100 -14 -91 10 3 8 2 14 -3 14 -5 0
-16 17 -25 38 -20 44 -37 74 -55 95 -7 9 -10 21 -6 27 3 5 -1 10 -9 10 -8 0
-17 9 -21 19 -6 21 -67 71 -85 71 -7 0 -9 15 -6 42 5 43 33 78 62 78 8 0 14
10 14 26 l0 25 -29 -20 c-63 -45 -110 -48 -112 -7 0 11 -4 30 -9 41 -7 16 -9
12 -9 -20z"/>
<path d="M0 3416 c0 -13 6 -27 13 -30 10 -5 9 -7 0 -12 -25 -11 -14 -71 27
-142 22 -38 40 -81 40 -96 0 -14 5 -26 10 -26 6 0 10 -9 10 -20 0 -11 4 -20 9
-20 5 0 13 -9 16 -20 8 -25 25 -26 26 -2 1 11 4 9 9 -8 12 -38 11 -52 -2 -44
-7 4 -3 -4 9 -17 22 -22 24 -22 40 -6 15 15 15 17 1 17 -21 0 -39 46 -42 111
-2 39 -7 53 -17 52 -8 -2 -19 7 -25 20 -6 12 -25 49 -43 82 -17 33 -31 73 -31
89 0 25 -34 96 -46 96 -2 0 -4 -11 -4 -24z m89 -225 c0 -14 -1 -14 -6 -1 -3 8
-10 24 -15 35 -9 20 -9 20 6 1 9 -11 16 -27 15 -35z"/>
<path d="M1410 3374 c-82 -129 -312 -315 -420 -339 -17 -4 -34 -14 -37 -23 -3
-10 -19 -28 -35 -42 -20 -18 -27 -31 -22 -43 9 -24 37 -21 49 6 6 12 24 27 42
32 26 9 30 13 21 28 -12 22 -14 19 42 46 152 71 312 217 389 354 32 57 10 43
-29 -19z"/>
<path d="M140 3400 c0 -5 5 -10 10 -10 6 0 10 5 10 10 0 6 -4 10 -10 10 -5 0
-10 -4 -10 -10z"/>
<path d="M4013 3342 c-6 -4 -14 -41 -17 -83 -5 -61 -4 -76 8 -76 9 0 17 23 26
75 12 72 6 98 -17 84z"/>
<path d="M6313 3313 c-20 -7 -16 -54 13 -157 24 -88 28 -94 48 -87 18 7 21 17
24 76 4 98 -26 179 -66 174 -4 0 -13 -3 -19 -6z"/>
<path d="M390 3308 c0 -6 80 -88 86 -88 8 0 2 7 -41 50 -25 24 -45 42 -45 38z"/>
<path d="M5052 3245 c-14 -30 2 -67 25 -58 7 3 21 -1 30 -8 37 -31 182 -213
185 -233 2 -11 10 -21 18 -21 8 0 20 -10 26 -23 6 -13 15 -23 19 -22 3 1 10
-2 13 -6 4 -4 1 -4 -5 0 -7 4 -13 2 -13 -4 0 -12 81 -102 87 -97 2 2 35 -27
73 -64 69 -67 130 -116 130 -105 0 3 -13 18 -28 33 -36 36 -92 108 -92 119 0
16 -65 104 -77 104 -14 0 -43 39 -43 57 0 7 24 24 54 37 64 28 85 52 37 41
-45 -10 -86 10 -106 51 -15 32 -16 33 -33 15 -9 -10 -22 -26 -28 -37 -18 -30
-37 -27 -63 11 -13 19 -30 35 -37 35 -7 0 -17 6 -21 14 -4 8 -30 38 -57 66
-36 38 -46 54 -37 63 8 8 5 17 -11 34 -27 29 -32 29 -46 -2z m278 -280 c14
-19 14 -19 -2 -6 -10 7 -18 18 -18 24 0 6 1 8 3 6 1 -2 9 -13 17 -24z m90
-150 c7 -8 9 -15 6 -15 -4 0 -14 7 -22 15 -9 8 -11 15 -6 15 5 0 15 -7 22 -15z"/>
<path d="M1127 3198 c-64 -105 -63 -121 5 -67 30 24 38 37 36 57 -4 34 -23 39
-41 10z"/>
<path d="M868 3183 c-36 -30 -210 -183 -218 -192 -3 -4 -46 -46 -97 -94 -88
-84 -94 -87 -130 -83 -21 2 -109 5 -197 5 -135 1 -157 3 -153 16 4 8 2 17 -3
20 -6 4 -10 -2 -10 -13 0 -10 -13 -38 -30 -60 -50 -69 -34 -100 20 -40 24 26
30 29 35 15 6 -13 16 -15 57 -10 41 5 50 3 46 -8 -3 -8 -30 -18 -69 -25 -93
-15 -119 -23 -119 -35 0 -6 9 -8 22 -3 55 17 164 31 176 21 8 -6 12 -6 12 0 0
6 29 13 64 17 147 15 318 76 437 155 95 64 188 143 188 161 1 8 -17 -3 -41
-26 -50 -47 -163 -129 -228 -166 -111 -61 -396 -136 -423 -109 -6 6 -9 13 -6
15 2 2 45 9 94 15 158 19 196 37 311 149 55 53 143 138 196 187 85 78 118 115
103 115 -2 0 -18 -12 -37 -27z"/>
<path d="M182 3180 c0 -14 2 -19 5 -12 2 6 2 18 0 25 -3 6 -5 1 -5 -13z"/>
<path d="M599 3183 c-13 -17 -13 -17 6 -3 11 8 22 16 24 17 2 2 0 3 -6 3 -6 0
-17 -8 -24 -17z"/>
<path d="M6123 3165 c-25 -18 -22 -32 25 -123 32 -62 33 -63 67 -56 23 4 35 2
35 -5 0 -6 -6 -13 -12 -15 -38 -12 -106 -34 -122 -41 -16 -7 -18 -5 -13 8 5
14 0 16 -33 14 -24 -1 -40 -7 -40 -14 0 -7 -4 -13 -10 -13 -5 0 -18 -19 -29
-42 -11 -24 -20 -36 -20 -27 -1 9 6 30 14 45 16 32 20 84 6 84 -5 0 -17 -21
-26 -47 -9 -27 -24 -66 -33 -88 -27 -63 -20 -134 16 -188 35 -49 78 -72 161
-83 28 -4 51 -10 51 -14 0 -13 -58 -22 -98 -15 -38 6 -49 12 -131 69 -38 26
-44 28 -69 16 -15 -7 -37 -17 -49 -23 -12 -5 -20 -14 -17 -19 3 -4 -3 -11 -13
-15 -10 -4 -21 -11 -25 -17 -5 -7 -8 -7 -8 2 0 8 -9 12 -20 10 -10 -2 -25 5
-32 14 -9 13 -17 15 -28 8 -12 -8 -9 -15 18 -43 31 -32 39 -47 25 -47 -5 0
-33 23 -63 51 -61 55 -90 75 -90 60 0 -5 6 -11 13 -14 6 -2 9 -7 5 -11 -3 -4
-24 10 -46 31 -22 21 -55 47 -73 57 -29 17 -25 10 26 -43 33 -34 83 -79 110
-99 28 -20 66 -51 85 -69 19 -17 37 -30 39 -27 3 3 -7 16 -22 30 -15 14 -27
28 -27 31 0 7 29 -17 87 -71 48 -45 67 -42 38 6 -18 31 -18 31 1 24 38 -16 88
-25 120 -20 47 6 334 147 363 178 14 14 20 27 15 28 -5 0 -13 2 -19 3 -5 2
-21 3 -34 4 -45 2 -8 20 49 24 59 5 90 14 90 28 0 5 -9 9 -19 9 -31 0 -35 19
-5 26 17 4 29 2 35 -7 6 -10 9 -8 9 9 0 25 11 24 -222 26 -125 1 -161 6 -146
22 22 22 243 33 279 14 9 -5 33 -7 53 -3 30 5 36 10 36 30 0 22 -4 25 -30 21
-33 -5 -28 8 5 14 11 2 21 11 23 21 3 15 -6 17 -80 18 l-83 0 59 30 c54 26 81
48 71 57 -1 2 -12 -2 -22 -9 -36 -22 -70 7 -120 101 -57 106 -63 111 -100 85z
m86 -309 c-11 -10 -89 -15 -89 -6 0 5 21 10 47 10 25 0 44 -2 42 -4z m-259
-58 c0 -5 -4 -8 -10 -8 -5 0 -10 10 -10 23 0 18 2 19 10 7 5 -8 10 -18 10 -22z
m200 -78 c11 -7 5 -10 -22 -10 -21 0 -38 5 -38 10 0 13 40 13 60 0z m-143 -22
c-3 -8 -6 -5 -6 6 -1 11 2 17 5 13 3 -3 4 -12 1 -19z m173 -28 c0 -5 -10 -10
-22 -9 -22 0 -22 1 -3 9 11 5 21 9 23 9 1 1 2 -3 2 -9z m-13 -47 c-9 -9 -20
-13 -24 -9 -4 4 -1 11 7 16 25 16 35 11 17 -7z m-512 -111 c-6 -7 -65 48 -65
60 0 5 16 -6 35 -23 19 -18 33 -35 30 -37z"/>
<path d="M555 3150 c-3 -5 -1 -10 4 -10 6 0 11 5 11 10 0 6 -2 10 -4 10 -3 0
-8 -4 -11 -10z"/>
<path d="M4002 3130 c0 -14 2 -19 5 -12 2 6 2 18 0 25 -3 6 -5 1 -5 -13z"/>
<path d="M4615 3120 c10 -11 20 -18 23 -15 7 6 -18 35 -31 35 -5 0 -2 -9 8
-20z"/>
<path d="M3992 3060 c0 -19 2 -27 5 -17 2 9 2 25 0 35 -3 9 -5 1 -5 -18z"/>
<path d="M980 3065 c0 -13 4 -14 20 -5 11 6 20 13 20 15 0 3 -9 5 -20 5 -11 0
-20 -7 -20 -15z"/>
<path d="M594 3028 l-19 -23 23 19 c21 18 27 26 19 26 -2 0 -12 -10 -23 -22z"/>
<path d="M429 3023 c-13 -16 -12 -17 4 -4 9 7 17 15 17 17 0 8 -8 3 -21 -13z"/>
<path d="M5170 3029 c0 -5 5 -7 10 -4 6 3 10 8 10 11 0 2 -4 4 -10 4 -5 0 -10
-5 -10 -11z"/>
<path d="M1695 3010 c-4 -6 -1 -26 5 -45 10 -30 14 -33 30 -23 17 11 17 15 4
39 -17 33 -30 43 -39 29z"/>
<path d="M3977 3001 c-4 -17 -3 -21 5 -13 5 5 8 16 6 23 -3 8 -7 3 -11 -10z"/>
<path d="M466 2985 c-11 -8 -17 -17 -14 -20 2 -3 13 4 23 15 21 23 18 25 -9 5z"/>
<path d="M5125 2973 c-39 -3 -63 -9 -68 -19 -4 -8 -19 -14 -32 -14 -17 0 -26
-7 -30 -23 -4 -13 -25 -34 -50 -49 -35 -22 -42 -31 -38 -48 9 -32 92 -89 131
-90 38 0 43 17 7 26 -49 12 -48 28 5 78 27 25 54 46 60 46 6 0 26 11 44 25 18
14 38 25 44 25 7 0 12 11 12 25 0 14 -5 24 -12 23 -7 -1 -40 -3 -73 -5z"/>
<path d="M160 2954 c0 -8 5 -12 10 -9 6 4 8 11 5 16 -9 14 -15 11 -15 -7z"/>
<path d="M3962 2950 c0 -14 2 -19 5 -12 2 6 2 18 0 25 -3 6 -5 1 -5 -13z"/>
<path d="M132 2930 c0 -14 2 -19 5 -12 2 6 2 18 0 25 -3 6 -5 1 -5 -13z"/>
<path d="M1741 2854 c18 -38 47 -103 66 -144 19 -41 42 -93 49 -115 8 -22 24
-55 35 -73 12 -21 17 -43 14 -56 -4 -14 -3 -17 3 -8 7 11 10 9 15 -7 3 -12 1
-19 -4 -15 -15 9 -10 -3 7 -21 10 -9 17 -29 18 -45 1 -15 5 -26 9 -23 5 3 14
-2 20 -10 20 -26 52 -25 55 0 5 33 -14 62 -36 56 -16 -4 -28 14 -71 101 -28
58 -51 108 -51 111 0 3 -26 60 -59 128 -32 67 -61 132 -65 144 -4 11 -13 27
-21 33 -9 7 -1 -18 16 -56z"/>
<path d="M3971 2904 c0 -11 3 -14 6 -6 3 7 2 16 -1 19 -3 4 -6 -2 -5 -13z"/>
<path d="M3951 2894 c0 -11 3 -14 6 -6 3 7 2 16 -1 19 -3 4 -6 -2 -5 -13z"/>
<path d="M410 2860 c-14 -10 -22 -21 -19 -24 3 -3 16 5 29 19 28 30 24 32 -10
5z"/>
<path d="M5270 2871 c0 -6 4 -13 10 -16 6 -3 7 1 4 9 -7 18 -14 21 -14 7z"/>
<path d="M1606 2863 c-9 -10 -7 -63 3 -63 4 0 24 -30 42 -67 19 -38 37 -69 42
-71 4 -2 7 -10 7 -17 0 -7 4 -15 9 -17 5 -1 54 -70 109 -153 156 -234 202
-298 228 -322 28 -26 29 -29 9 -37 -19 -7 -47 3 -39 15 5 9 -3 20 -43 64 -13
13 -23 28 -23 34 0 5 -3 11 -8 13 -12 5 -72 85 -72 96 0 6 -6 15 -13 19 -7 4
-33 37 -58 73 -25 36 -61 88 -81 116 -20 29 -35 54 -32 57 3 2 -20 30 -49 62
-33 34 -57 53 -61 46 -4 -6 -3 -11 2 -11 6 0 21 -17 34 -37 12 -20 28 -44 33
-52 6 -9 25 -37 43 -63 18 -27 30 -48 27 -48 -3 0 5 -10 18 -22 13 -13 59 -70
102 -128 43 -58 98 -130 122 -160 23 -30 49 -64 57 -75 38 -51 69 -85 77 -85
14 0 11 43 -6 83 -8 19 -12 37 -9 40 3 3 0 21 -7 40 -9 26 -16 33 -31 29 -14
-3 -21 2 -25 17 -3 11 -9 18 -14 15 -5 -3 -9 2 -9 10 0 8 -13 30 -28 48 -50
59 -109 153 -104 167 3 9 0 11 -8 6 -10 -6 -12 -3 -6 11 4 10 4 15 0 11 -6 -6
-94 115 -94 130 0 2 -12 20 -26 38 -17 23 -24 41 -19 55 5 14 2 20 -9 20 -10
0 -16 9 -16 24 0 13 -7 27 -16 30 -9 3 -14 13 -11 20 6 15 -36 50 -47 39z"/>
<path d="M3956 2794 c-14 -120 -29 -204 -35 -200 -4 3 -13 1 -21 -4 -18 -11
-2 -65 20 -65 17 0 26 34 35 130 3 41 10 101 15 132 6 32 10 59 10 61 0 1 -4
2 -9 2 -4 0 -11 -25 -15 -56z"/>
<path d="M3085 2830 c-3 -6 -11 -8 -16 -5 -5 4 -9 -1 -9 -10 0 -9 -4 -13 -10
-10 -5 3 -10 1 -10 -4 0 -6 4 -11 8 -11 5 0 29 -13 53 -30 24 -16 54 -30 66
-30 19 0 22 5 20 29 -2 17 -10 38 -18 47 -8 9 -12 20 -9 23 3 3 -11 7 -32 9
-20 2 -39 -2 -43 -8z"/>
<path d="M3942 2810 c0 -14 2 -19 5 -12 2 6 2 18 0 25 -3 6 -5 1 -5 -13z"/>
<path d="M5326 2816 c3 -8 13 -17 22 -21 13 -5 13 -2 -3 15 -21 24 -26 25 -19
6z"/>
<path d="M1267 2795 c-19 -18 -22 -35 -7 -35 6 0 10 4 10 8 0 12 68 14 90 2
11 -6 20 -7 20 -2 0 33 -87 53 -113 27z"/>
<path d="M3031 2764 c0 -11 3 -14 6 -6 3 7 2 16 -1 19 -3 4 -6 -2 -5 -13z"/>
<path d="M3932 2750 c0 -14 2 -19 5 -12 2 6 2 18 0 25 -3 6 -5 1 -5 -13z"/>
<path d="M3251 2741 c-7 -12 -20 -21 -30 -21 -10 0 -24 -6 -30 -14 -16 -19
-69 -28 -94 -15 -12 6 -32 21 -44 32 -19 17 -23 18 -23 4 0 -9 5 -19 10 -22 6
-3 10 -16 10 -28 0 -12 12 -44 25 -72 14 -27 25 -58 25 -67 0 -9 5 -20 10 -23
6 -3 10 -15 10 -26 0 -10 4 -27 9 -37 6 -9 21 -39 34 -67 13 -27 29 -59 34
-70 6 -11 23 -46 38 -79 14 -32 33 -65 41 -73 8 -9 13 -21 10 -28 -4 -10 3
-11 26 -4 38 11 60 29 35 29 -9 0 -18 5 -18 10 -3 18 -5 25 -26 70 -28 59 -45
123 -31 114 8 -5 9 1 4 17 -23 73 -36 126 -36 146 0 13 -4 23 -10 23 -31 0 13
58 68 89 15 9 15 13 -2 63 -24 67 -31 75 -45 49z"/>
<path d="M5390 2756 c0 -2 7 -7 16 -10 8 -3 12 -2 9 4 -6 10 -25 14 -25 6z"/>
<path d="M1172 2728 c5 -15 28 -23 28 -10 0 5 -7 13 -16 16 -10 4 -14 1 -12
-6z"/>
<path d="M5662 2660 c0 -19 2 -27 5 -17 2 9 2 25 0 35 -3 9 -5 1 -5 -18z"/>
<path d="M1446 2646 c-9 -19 -16 -37 -16 -41 0 -11 35 37 43 58 12 31 -10 18
-27 -17z"/>
<path d="M840 2645 c-188 -30 -357 -96 -514 -200 -94 -63 -101 -69 -90 -86 5
-8 10 -6 16 5 5 9 41 38 81 64 208 139 391 198 641 209 l149 6 -5 -26 c-3 -15
-1 -27 3 -27 5 0 9 16 9 35 l0 35 -102 -1 c-57 -1 -141 -7 -188 -14z"/>
<path d="M6320 2650 c0 -5 9 -10 19 -10 11 0 23 5 26 10 4 6 -5 10 -19 10 -14
0 -26 -4 -26 -10z"/>
<path d="M1375 2630 c-19 -8 -19 -9 2 -9 12 -1 25 4 28 9 7 12 -2 12 -30 0z"/>
<path d="M455 2568 c-67 -18 -102 -23 -295 -48 -47 -6 -102 -16 -122 -22 -37
-11 -38 -12 -38 -60 0 -54 -2 -52 51 -36 33 9 42 9 57 -5 23 -21 32 -21 32 -2
0 8 3 15 8 16 9 1 63 8 82 12 8 1 38 16 65 32 28 16 95 52 150 81 55 30 96 53
90 52 -5 0 -41 -9 -80 -20z"/>
<path d="M1201 2564 c0 -11 3 -14 6 -6 3 7 2 16 -1 19 -3 4 -6 -2 -5 -13z"/>
<path d="M1498 2573 c6 -2 18 -2 25 0 6 3 1 5 -13 5 -14 0 -19 -2 -12 -5z"/>
<path d="M1600 2566 c0 -14 29 -31 38 -21 6 6 -18 35 -29 35 -5 0 -9 -6 -9
-14z"/>
<path d="M975 2520 c-140 -8 -262 -34 -379 -81 -112 -45 -301 -167 -285 -183
3 -3 30 12 60 35 173 129 387 205 612 216 70 3 127 10 127 15 0 4 -1 7 -2 6
-2 0 -61 -4 -133 -8z"/>
<path d="M1650 2518 c0 -8 6 -23 14 -33 8 -11 12 -25 9 -32 -4 -9 0 -11 12 -7
10 4 21 1 27 -7 6 -10 7 -7 2 11 -8 29 -64 88 -64 68z"/>
<path d="M5266 2483 c-3 -3 -3 -10 0 -14 7 -12 34 -11 34 0 0 11 -26 22 -34
14z"/>
<path d="M900 2464 c-189 -29 -353 -90 -479 -178 -111 -79 -245 -244 -316
-392 -62 -129 -121 -363 -96 -378 6 -4 11 -24 11 -44 0 -49 24 -142 51 -194
11 -22 69 -89 127 -148 59 -59 182 -184 274 -279 96 -99 172 -170 178 -166 7
4 10 0 8 -11 -2 -13 3 -19 14 -18 10 1 15 -3 12 -8 -3 -5 4 -20 15 -32 l22
-23 -27 -42 c-31 -46 -43 -50 -62 -21 -14 24 -45 26 -62 5 -18 -22 -5 -45 30
-51 34 -7 38 -17 13 -36 -10 -7 -19 -20 -21 -28 -7 -30 -29 -28 -97 9 -76 42
-146 80 -295 159 -52 27 -117 62 -144 76 -27 14 -51 26 -53 26 -2 0 -2 -71 -1
-157 l3 -158 78 -14 c45 -9 76 -19 74 -25 -4 -13 -41 -13 -109 -2 -31 6 -48 5
-48 -2 0 -6 19 -13 42 -17 113 -17 109 -15 106 -44 -3 -25 -2 -26 45 -23 40 3
47 0 47 -15 0 -37 -15 -45 -64 -38 -34 5 -46 4 -46 -5 0 -10 -16 -11 -65 -6
-70 7 -93 -9 -28 -19 89 -15 93 -16 93 -37 0 -20 -4 -21 -65 -15 l-65 6 0 -59
0 -60 695 0 c611 0 695 2 695 15 0 8 6 15 14 15 7 0 34 18 60 41 45 40 46 42
46 100 0 48 3 57 15 53 18 -7 18 -4 5 30 -6 16 -17 26 -30 26 -21 0 -23 -7
-21 -50 2 -32 -25 -98 -52 -128 -11 -12 -31 -22 -44 -22 -21 0 -23 4 -18 23 4
12 14 29 23 37 49 45 63 120 23 120 -18 0 -51 -29 -51 -44 0 -5 -14 -26 -31
-47 -23 -29 -38 -39 -60 -39 -31 0 -69 30 -69 55 0 8 -9 20 -20 27 -20 13 -28
48 -11 48 5 0 11 12 13 28 2 21 8 27 26 27 40 1 42 25 8 95 -17 36 -38 81 -45
100 -8 19 -31 72 -53 117 -21 45 -49 111 -63 145 -13 35 -38 95 -56 133 -58
123 -82 289 -41 282 9 -2 28 -10 42 -19 34 -22 78 -32 93 -21 17 13 36 11 46
-6 6 -10 10 -10 16 -1 4 6 4 14 1 17 -3 3 -1 12 5 20 9 10 5 13 -20 13 -19 0
-30 4 -26 10 3 6 1 10 -4 10 -6 0 -11 -6 -11 -14 0 -16 -59 -30 -84 -20 -9 3
-16 13 -16 20 0 8 -11 19 -24 24 -13 5 -27 14 -31 20 -11 18 -23 2 -17 -27 4
-23 2 -26 -9 -15 -10 9 -13 49 -14 155 0 78 -4 148 -8 155 -20 31 -27 -6 -21
-121 9 -194 10 -315 2 -310 -5 2 -8 -2 -8 -10 0 -8 -13 -17 -30 -21 -26 -5
-35 0 -60 27 -17 19 -31 48 -35 74 -5 34 -9 41 -23 36 -9 -4 -25 -17 -35 -30
-22 -27 -80 -44 -145 -43 -26 1 -58 0 -72 -2 -23 -3 -25 1 -30 49 -3 28 -9 55
-13 59 -4 4 -7 3 -7 -3 0 -19 -26 -21 -38 -3 -9 15 -6 23 14 46 18 19 28 23
33 15 5 -8 12 -3 19 14 13 29 7 49 -13 41 -7 -2 -18 1 -25 7 -10 10 -12 7 -7
-10 3 -16 1 -20 -9 -16 -13 5 -17 15 -27 68 -3 15 -6 12 -14 -15 l-11 -35 -7
33 c-4 17 -11 32 -14 32 -9 0 -41 66 -41 85 0 8 -4 15 -8 15 -5 0 -21 30 -37
68 -15 37 -38 89 -52 116 -35 71 -39 123 -14 166 12 19 29 52 38 73 10 20 21
37 25 37 5 0 8 6 8 14 0 19 26 40 35 26 11 -18 27 -11 20 9 -6 20 42 98 71
114 8 4 14 13 14 18 0 20 44 48 68 42 13 -3 22 -1 22 6 0 17 68 43 91 36 11
-4 19 -2 19 5 0 6 12 16 26 22 20 9 27 9 34 -1 4 -8 6 6 3 32 -5 43 -4 46 28
60 28 13 64 26 89 32 3 1 16 5 30 8 79 21 257 32 275 17 8 -7 28 -9 48 -5 41
8 156 -19 207 -48 66 -39 135 -77 155 -86 11 -5 34 -22 51 -37 48 -45 79 -70
95 -76 8 -3 21 -18 29 -34 18 -35 36 -55 43 -48 2 3 17 -19 31 -48 23 -45 24
-53 11 -56 -14 -3 -15 -16 -9 -88 4 -54 3 -84 -3 -84 -12 0 -23 56 -23 121 0
25 -3 48 -6 52 -11 10 -32 -18 -37 -49 -3 -16 -5 -3 -4 28 0 32 -2 61 -6 65
-6 6 -9 -36 -9 -117 0 -14 3 -83 7 -155 13 -246 21 -470 17 -483 -3 -7 -10
-11 -16 -9 -14 5 -22 76 -35 311 -6 104 -13 191 -15 193 -2 2 -15 -1 -30 -7
-27 -10 -27 -11 -24 -95 2 -47 0 -85 -4 -85 -5 0 -8 8 -8 18 0 11 -12 24 -27
31 -16 8 -34 16 -42 20 -8 4 -26 -5 -44 -22 -32 -29 -101 -69 -127 -73 -8 -1
-29 -5 -46 -9 -26 -6 -32 -4 -37 14 -3 12 -1 24 4 27 16 9 10 24 -7 17 -48
-18 47 82 106 112 17 9 28 20 25 25 -8 13 -35 13 -35 1 0 -5 -18 -18 -40 -30
-34 -18 -41 -19 -54 -6 -8 8 -21 15 -30 15 -8 0 -32 21 -53 48 -21 26 -53 63
-70 82 -28 30 -33 32 -33 15 0 -11 14 -32 30 -47 17 -14 30 -33 30 -42 0 -23
-40 -46 -82 -46 -21 0 -38 -4 -38 -9 0 -14 -28 -21 -53 -13 -13 5 -36 3 -57
-5 l-35 -14 42 6 c25 3 44 1 48 -6 5 -6 17 -8 34 -3 25 7 64 12 146 17 l40 2
6 -50 c8 -63 59 -215 93 -277 14 -27 21 -48 15 -48 -6 0 -7 -5 -4 -10 4 -6 11
-8 16 -4 5 3 9 2 8 -3 -1 -4 2 -16 6 -27 11 -26 -6 -50 -39 -54 -28 -4 -31 -9
-15 -32 8 -11 12 -12 16 -2 7 19 26 14 19 -5 -6 -16 -6 -16 12 0 25 23 41 21
35 -3 -4 -14 0 -20 11 -20 9 0 16 8 16 20 0 14 7 20 23 21 15 1 17 3 6 6 -23
6 -31 40 -12 47 19 8 33 -1 33 -19 0 -8 10 -23 22 -35 12 -11 19 -23 15 -26
-4 -4 -1 -12 7 -18 17 -14 58 -124 51 -137 -19 -29 -43 3 -65 89 -6 23 -16 42
-21 42 -7 0 -8 8 -4 18 4 11 3 14 -4 7 -6 -6 -11 -53 -13 -105 -3 -89 -4 -95
-25 -98 -18 -3 -31 10 -65 62 -24 36 -47 66 -52 66 -9 0 1 -68 13 -85 4 -5 6
-26 6 -44 0 -28 -5 -36 -22 -40 -24 -6 -19 -23 9 -34 36 -13 48 46 23 118 l-7
20 16 -20 c79 -101 104 -109 131 -43 11 28 19 38 24 29 5 -7 19 -18 32 -24 22
-11 46 -52 97 -165 l20 -42 77 82 c43 46 85 99 94 118 9 19 24 44 34 55 27 29
51 79 82 170 31 92 51 122 41 60 -11 -59 -75 -199 -130 -283 -67 -102 -182
-217 -288 -290 -42 -29 -48 -37 -48 -68 0 -35 18 -53 40 -39 8 5 6 14 -4 31
-9 13 -16 25 -16 27 0 2 29 22 64 45 143 95 324 328 375 484 13 40 41 71 41
46 0 -9 12 -32 26 -53 18 -27 24 -47 20 -66 -9 -47 -75 -172 -129 -245 -103
-139 -304 -313 -346 -299 -11 3 -26 -4 -41 -20 -29 -31 -44 -32 -64 -3 -9 12
-18 19 -21 16 -11 -10 7 -88 21 -88 7 0 27 -13 45 -30 l33 -30 21 20 c25 23
52 26 74 6 14 -12 23 -11 66 10 27 14 55 22 61 20 13 -5 67 -116 78 -160 4
-16 24 -65 45 -110 21 -44 44 -98 52 -119 l13 -37 258 0 c142 0 258 4 258 8 0
4 -20 52 -45 107 -25 55 -45 106 -45 113 0 18 25 42 43 42 8 0 18 7 21 16 4 9
13 14 21 10 10 -3 15 1 16 12 0 12 3 10 10 -7 6 -14 6 -27 1 -30 -5 -3 -12
-36 -16 -72 -6 -53 -4 -69 8 -82 9 -9 16 -32 16 -51 0 -20 5 -36 10 -36 6 0
10 -7 10 -15 0 -14 178 -15 1608 -13 l1607 3 61 32 c34 18 75 35 90 39 16 4
50 21 76 38 35 24 46 36 45 55 -2 17 6 29 23 38 31 15 60 68 60 108 l0 30 -20
-30 c-27 -43 -194 -165 -225 -165 -13 0 -3 31 13 37 22 8 132 124 132 141 0 6
5 12 10 12 14 0 49 81 43 97 -7 17 -23 17 -23 1 0 -12 -81 -98 -92 -98 -3 0
-3 12 0 27 l5 28 -29 -26 c-48 -42 -93 -71 -104 -64 -5 3 -10 2 -10 -4 0 -17
-61 -44 -72 -33 -15 15 1 34 23 27 11 -4 19 -2 19 5 0 6 -4 8 -10 5 -19 -12
-10 7 13 26 12 10 32 18 45 19 13 0 41 18 66 44 33 33 47 41 56 32 8 -8 15 -6
26 9 25 33 61 98 69 124 6 20 4 23 -9 18 -10 -4 -16 -1 -16 9 0 8 3 13 8 11 4
-3 5 16 3 41 -3 37 -6 42 -11 22 -4 -17 -8 -21 -14 -12 -10 17 -26 5 -26 -21
0 -12 -11 -32 -24 -44 -28 -27 -36 -29 -36 -8 0 8 5 15 10 15 6 0 10 6 10 13
0 6 13 26 29 43 l30 32 -30 6 c-25 5 -29 10 -29 37 0 26 -2 30 -15 19 -8 -6
-19 -9 -25 -5 -17 11 -11 42 14 72 14 16 28 40 31 54 3 13 17 38 31 54 l24 30
0 -25 c0 -37 -11 -71 -21 -64 -5 3 -6 -2 -2 -11 4 -13 8 -14 14 -4 9 16 7 21
40 -101 12 -47 28 -92 36 -101 7 -8 13 -25 13 -36 0 -12 7 -23 15 -27 8 -3 15
-15 15 -27 0 -12 15 -52 34 -89 22 -43 38 -92 44 -135 l9 -68 -78 -77 c-61
-60 -91 -82 -137 -99 -33 -11 -64 -21 -71 -21 -29 0 -81 -30 -75 -43 4 -12 42
-15 198 -16 l192 -2 12 26 c7 14 12 32 12 39 0 8 6 19 14 25 8 6 26 50 41 97
l27 85 -22 21 c-20 18 -23 19 -39 4 -22 -20 -31 -20 -31 -1 0 8 -6 24 -12 35
-11 17 -10 22 2 30 8 5 10 10 4 10 -7 0 -14 7 -18 15 -8 21 4 19 38 -8 79 -61
112 -97 124 -137 12 -39 11 -43 -15 -78 -16 -20 -36 -44 -45 -54 -10 -10 -18
-24 -18 -32 0 -8 -3 -22 -7 -31 -5 -14 -3 -16 13 -8 34 17 59 10 58 -14 0 -13
3 -23 6 -23 4 0 10 32 12 70 3 39 8 74 12 77 14 14 21 -12 21 -78 l0 -69 42 0
43 0 0 1205 c0 663 -2 1205 -5 1205 -23 0 -592 -223 -608 -239 -4 -4 3 -18 15
-31 13 -14 21 -25 19 -25 -8 0 64 -145 72 -145 4 0 3 9 -3 19 -5 11 -10 28
-10 38 0 14 4 12 18 -9 14 -24 24 -28 59 -28 27 0 43 5 44 13 0 6 5 2 11 -9
10 -21 55 -49 71 -45 5 1 6 -3 2 -9 -10 -16 16 -66 39 -76 13 -5 22 -20 24
-39 2 -16 10 -38 18 -49 8 -11 14 -31 14 -44 0 -19 4 -23 18 -20 15 4 18 1 14
-18 -3 -15 3 -27 17 -36 20 -12 51 -111 38 -124 -13 -13 -46 9 -57 39 l-11 32
-24 -27 -23 -27 -41 86 c-23 46 -41 89 -41 94 0 5 -4 9 -10 9 -5 0 -10 6 -10
13 0 7 -12 24 -27 38 -47 44 -83 89 -83 103 0 20 -27 39 -45 32 -21 -8 -19
-27 4 -33 11 -3 22 -10 24 -17 8 -20 -4 -66 -17 -66 -18 0 -36 21 -36 42 0 10
-7 18 -15 18 -9 0 -15 9 -15 24 0 14 -4 28 -10 31 -12 8 -13 55 -1 55 5 0 11
-7 15 -15 3 -8 10 -15 16 -15 6 0 -25 35 -67 78 -78 78 -78 78 -105 63 -21
-12 -32 -13 -45 -5 -10 6 -18 15 -18 20 -1 5 -6 19 -13 31 -7 12 -9 35 -6 52
5 22 -3 57 -26 119 -18 48 -36 91 -41 96 -4 5 -28 -8 -53 -29 -49 -40 -74 -41
-95 -2 -14 27 -80 81 -88 73 -3 -3 -1 -11 5 -18 6 -7 12 -31 14 -53 3 -36 0
-42 -32 -62 -62 -39 -122 -26 -181 39 -20 22 -29 23 -29 4 0 -7 10 -21 22 -29
13 -8 56 -47 97 -86 41 -39 78 -72 81 -73 32 -14 160 -117 160 -129 0 -14 -27
-88 -35 -97 -1 -2 -27 6 -56 18 -30 11 -57 20 -61 20 -15 0 -2 -38 25 -77 15
-22 27 -44 27 -51 0 -7 9 -12 20 -12 11 0 20 -7 20 -15 0 -11 8 -13 30 -8 16
3 30 3 30 -1 0 -3 -18 -24 -41 -47 -22 -22 -39 -45 -36 -52 7 -21 54 -49 87
-50 27 -2 36 3 49 27 9 16 20 28 24 27 4 0 16 -1 27 -1 22 0 27 -28 10 -61
-12 -22 -11 -23 25 -9 23 9 26 8 21 -5 -3 -9 0 -15 8 -15 17 0 11 -31 -15 -75
-33 -58 -33 -72 1 -90 30 -16 31 -17 15 -35 -9 -10 -15 -27 -13 -37 3 -14 19
-3 77 55 41 39 82 72 92 72 10 0 20 4 23 9 17 27 222 23 250 -5 10 -10 12 -23
6 -49 -4 -20 -6 -55 -3 -78 7 -67 6 -87 -5 -110 -6 -12 -13 -47 -17 -77 -7
-64 -24 -91 -57 -92 -12 -1 -32 -9 -42 -17 -14 -12 -20 -13 -23 -3 -3 6 -13
12 -22 12 -10 0 -26 9 -36 20 -30 33 -33 23 -12 -40 15 -45 25 -60 38 -60 11
0 19 -6 19 -13 0 -24 -44 -123 -68 -153 -13 -16 -26 -35 -31 -41 -9 -16 -111
-28 -111 -13 0 6 12 29 26 51 24 39 25 42 8 60 -18 20 -44 26 -44 10 0 -5 -9
-12 -20 -16 -11 -3 -19 -9 -17 -13 1 -4 -8 -18 -20 -32 -13 -13 -23 -18 -23
-11 0 7 10 42 23 77 22 64 22 66 3 79 -15 11 -16 17 -7 28 8 10 9 35 2 88 -5
41 -9 95 -9 122 1 41 -3 52 -30 78 -18 17 -32 36 -32 43 0 6 -18 28 -40 48
-22 21 -37 44 -34 51 11 30 -76 74 -134 69 -47 -5 -48 -22 -1 -22 16 0 29 -4
29 -10 0 -5 -5 -10 -11 -10 -8 0 -8 -4 0 -14 9 -11 4 -15 -26 -20 -59 -11 -71
-16 -77 -33 -5 -13 0 -14 31 -10 21 3 30 3 21 1 -10 -3 -18 -9 -18 -13 0 -11
-50 -32 -61 -25 -5 3 -16 -2 -25 -10 -8 -9 -25 -22 -36 -31 -12 -8 -19 -18
-15 -21 4 -4 12 -2 19 3 7 6 24 14 38 17 24 7 24 6 6 -8 -10 -8 -16 -22 -13
-30 7 -18 -9 -32 -46 -41 -21 -6 -27 -4 -27 9 0 9 -4 16 -10 16 -5 0 -10 -4
-10 -10 0 -5 -4 -10 -10 -10 -5 0 -10 9 -10 20 0 11 -4 20 -10 20 -6 0 -6 9 0
26 14 37 12 40 -10 14 -11 -13 -20 -19 -20 -15 0 4 -9 0 -20 -10 -28 -25 -34
-14 -16 29 13 31 13 36 0 36 -7 0 -14 -4 -14 -10 0 -21 -18 -9 -28 18 -15 44
-4 74 39 105 45 31 70 36 46 9 -24 -26 -21 -33 10 -26 21 6 25 4 20 -9 -4 -11
-2 -14 9 -10 7 3 14 10 14 17 1 6 23 29 50 50 48 38 58 59 22 50 -9 -3 -26 2
-37 10 -20 15 -20 15 1 16 12 0 24 7 27 14 7 17 -1 15 -83 -25 -31 -15 -70
-39 -88 -54 -18 -15 -32 -22 -32 -16 0 25 -28 -3 -39 -40 -12 -41 -25 -50 -35
-23 -8 22 -23 9 -32 -29 -7 -29 -8 -30 -13 -9 -3 13 -9 23 -14 22 -4 0 -17 9
-29 20 -12 11 -24 20 -27 20 -8 0 -41 -110 -41 -132 0 -23 -10 -48 -20 -48 -5
0 -12 10 -15 21 -6 17 -9 19 -16 8 -7 -11 -9 -11 -9 -1 0 7 -4 11 -9 8 -4 -3
-4 -31 1 -62 10 -65 6 -74 -18 -46 -9 11 -23 18 -29 15 -23 -8 -31 20 -41 132
-7 87 -9 98 -24 103 -7 3 -10 0 -6 -7 4 -6 3 -11 -3 -11 -5 0 -13 5 -16 10 -3
6 -24 10 -46 10 -24 0 -38 -4 -34 -10 3 -5 0 -10 -8 -10 -8 0 -20 -6 -26 -14
-10 -11 -8 -16 9 -21 11 -4 20 -12 19 -18 -1 -7 5 -28 13 -46 9 -19 14 -41 11
-47 -3 -7 -1 -19 4 -26 4 -7 9 -42 10 -78 3 -142 8 -178 27 -199 10 -11 15
-24 12 -29 -3 -5 6 -25 20 -45 30 -45 51 -142 34 -162 -9 -10 -4 -16 25 -26
26 -10 34 -17 30 -30 -4 -11 2 -23 16 -32 l21 -15 -23 -4 c-22 -3 -22 -4 -5
-21 18 -17 17 -18 -8 -11 -28 7 -38 -12 -12 -22 29 -11 25 -30 -6 -26 -20 3
-32 12 -39 29 -9 25 -22 26 -90 7 -10 -3 -20 5 -27 21 -17 37 -15 41 11 17 13
-12 27 -18 35 -14 9 6 4 23 -18 68 -16 32 -30 51 -30 42 0 -20 -15 -24 -25 -8
-9 14 4 52 16 45 12 -8 12 -8 -12 60 -18 50 -22 86 -24 214 -2 129 -5 155 -19
163 -21 12 -20 28 2 29 11 1 8 4 -8 8 -14 4 -30 17 -36 30 -6 12 -14 21 -17
19 -8 -5 -47 34 -47 48 0 7 -9 19 -20 27 -14 9 -18 21 -14 33 5 18 5 18 -9 1
-15 -18 -16 -18 -28 5 -7 13 -12 27 -11 32 4 13 -19 36 -37 36 -18 0 -46 -54
-36 -70 8 -13 35 -13 35 0 0 6 6 10 14 10 8 0 26 -30 41 -67 16 -38 36 -88 47
-112 21 -51 25 -92 6 -73 -17 17 -28 15 -28 -5 -1 -15 -5 -13 -25 10 -34 39
-46 35 -39 -13 6 -40 6 -40 -25 -40 -21 0 -31 5 -31 15 0 9 -7 27 -16 40 -10
15 -12 25 -5 25 19 0 12 17 -10 23 -17 5 -20 2 -16 -14 3 -10 1 -17 -4 -13 -5
3 -9 12 -9 20 0 8 -7 26 -16 39 -13 20 -14 25 -3 26 8 0 2 5 -13 11 -36 13
-36 27 0 34 29 6 92 57 92 75 0 5 -9 9 -20 9 -11 0 -20 6 -20 13 0 8 -4 7 -10
-3 -9 -13 -12 -12 -26 5 -14 19 -16 19 -25 2 -13 -22 -32 -12 -24 13 5 15 2
17 -14 13 -12 -3 -19 -9 -16 -13 3 -5 -4 -6 -15 -3 -15 4 -20 0 -20 -15 0 -12
4 -23 9 -26 5 -3 12 -18 16 -33 3 -15 15 -39 26 -55 11 -15 19 -38 17 -50 -3
-19 -6 -17 -30 20 -19 28 -39 44 -60 50 -43 12 -46 7 -18 -23 l23 -25 -21 0
c-12 0 -22 -6 -22 -12 -1 -7 -7 -2 -14 11 -10 18 -15 20 -19 10 -3 -8 -3 4 1
26 3 22 6 47 6 55 1 8 6 18 11 22 24 18 -25 6 -97 -23 -69 -28 -77 -34 -72
-53 4 -17 -1 -24 -28 -34 -48 -18 -69 -37 -62 -56 8 -22 18 -20 64 9 22 14 43
25 48 25 5 0 16 -15 25 -34 18 -38 12 -47 -33 -61 -36 -11 -50 -25 -49 -49 1
-17 2 -18 6 -3 4 14 8 16 19 6 11 -9 21 -7 49 9 l35 21 15 -22 c23 -33 19 -64
-9 -71 -25 -6 -56 -31 -56 -45 0 -14 58 -10 71 5 19 23 39 16 54 -18 16 -38
15 -39 -47 -62 -43 -16 -88 -55 -88 -77 0 -17 27 -9 54 16 14 13 33 22 41 19
8 -3 28 3 46 13 18 10 33 14 36 8 15 -42 52 -90 70 -93 12 -2 24 -10 27 -18
10 -25 -21 -15 -64 21 -23 19 -46 35 -51 35 -5 0 -15 -13 -24 -29 -18 -36 -64
-72 -125 -98 -25 -11 -69 -37 -97 -57 -28 -20 -77 -47 -109 -60 -69 -28 -113
-62 -138 -107 l-19 -34 34 32 c19 18 68 46 109 64 41 17 98 46 125 63 28 17
71 42 97 55 25 14 61 37 78 53 18 15 39 28 48 28 11 0 13 8 8 33 l-6 32 25
-40 c31 -49 65 -155 65 -201 0 -72 -127 -150 -405 -249 -71 -25 -139 -50 -150
-55 -37 -18 -80 -33 -115 -40 -19 -5 -60 -15 -90 -24 -30 -9 -130 -25 -222
-36 -160 -21 -167 -21 -187 -3 -12 9 -21 20 -21 24 0 3 35 9 78 13 188 17 549
91 637 131 17 8 59 26 95 40 36 15 88 37 115 50 28 12 68 28 90 35 22 7 45 17
51 22 7 5 22 11 34 13 24 5 49 32 50 53 0 15 -12 16 -26 2 -22 -22 -431 -196
-485 -206 -46 -9 -36 -2 46 34 66 29 92 43 249 132 34 19 90 51 124 70 40 22
62 41 62 53 0 16 -2 16 -25 1 -14 -9 -22 -20 -19 -25 3 -5 -2 -9 -11 -9 -9 0
-64 -25 -123 -54 -264 -135 -357 -172 -466 -186 -39 -5 -89 -15 -111 -23 -22
-8 -115 -20 -207 -27 -152 -12 -168 -15 -168 -32 0 -16 8 -18 68 -17 37 0 106
6 155 13 48 7 93 9 100 4 8 -5 6 -8 -8 -8 -11 -1 -91 -11 -178 -24 l-159 -22
-16 24 c-14 21 -14 26 0 50 10 18 13 34 7 47 -4 11 -8 23 -8 28 -1 4 34 7 77
8 l77 1 -50 18 c-65 24 -105 25 -105 3 0 -39 -14 2 -17 53 l-5 57 42 -7 c23
-3 68 -16 101 -27 47 -16 73 -20 113 -15 57 8 133 28 165 45 15 8 30 6 63 -8
l43 -18 60 29 c33 15 66 28 73 28 31 0 153 73 200 120 29 28 52 55 52 60 0 4
25 20 54 35 48 24 74 50 63 62 -10 10 -59 -20 -99 -61 -96 -99 -175 -153 -261
-180 -45 -15 -104 -33 -130 -42 -44 -14 -52 -14 -92 2 -43 16 -47 16 -114 -6
-53 -17 -85 -21 -137 -17 -76 5 -195 34 -206 51 -9 13 -10 70 -2 79 10 10 58
-12 75 -35 14 -18 33 -21 145 -30 95 -6 139 -6 166 3 29 9 35 15 27 25 -7 9
-4 14 12 19 12 4 56 30 98 59 42 28 105 69 141 90 36 21 106 79 156 129 83 81
95 89 123 85 17 -2 31 -1 31 4 0 4 7 8 15 8 8 0 15 9 15 21 0 19 -1 19 -22 5
-12 -9 -39 -16 -59 -16 l-37 0 13 55 c7 31 9 58 4 60 -12 8 -32 -34 -25 -51 3
-9 -10 -32 -32 -56 -20 -22 -36 -45 -34 -50 1 -5 -2 -6 -8 -3 -13 8 -70 -13
-70 -26 0 -5 11 -3 25 3 14 6 27 9 30 6 10 -10 -49 -69 -105 -105 -30 -20
-105 -70 -167 -111 -95 -63 -120 -76 -164 -80 -31 -3 -50 -1 -46 5 3 5 -8 10
-25 11 -54 4 -53 14 3 32 30 9 73 26 96 38 23 12 52 22 63 22 20 0 125 88 116
97 -2 2 -33 -14 -69 -36 -36 -22 -101 -52 -144 -67 -66 -22 -91 -25 -160 -22
-67 4 -80 2 -72 -9 9 -10 5 -13 -21 -13 -33 0 -33 0 -14 -21 16 -18 26 -20 75
-15 44 4 64 1 93 -14 21 -10 52 -24 69 -30 l32 -12 -33 -10 c-21 -5 -46 -5
-70 2 -20 5 -67 10 -104 10 -64 0 -68 2 -82 28 -8 15 -26 34 -40 42 -22 11
-26 20 -26 57 0 55 16 62 128 55 117 -7 188 10 342 83 74 35 164 74 198 87 55
20 70 31 110 83 26 33 58 69 72 80 39 31 70 67 70 81 0 7 -39 -26 -87 -75 -83
-83 -94 -90 -193 -131 -116 -47 -177 -76 -200 -95 -26 -21 -123 -54 -200 -69
-76 -14 -138 -10 -209 13 -25 8 -37 8 -42 0 -10 -16 -19 3 -40 85 -23 86 -24
105 -7 88 7 -7 21 -12 33 -12 12 0 26 -5 32 -11 7 -7 13 -7 17 -1 3 6 -8 13
-25 17 -40 9 -119 56 -119 71 0 6 -17 26 -37 44 -33 27 -43 31 -75 26 -37 -6
-37 -6 -49 36 -6 24 -15 53 -20 66 -10 26 -6 28 17 5 16 -16 16 -16 10 5 -9
26 -7 26 64 7 64 -17 198 -19 287 -5 91 15 312 112 418 183 107 72 353 313
337 329 -13 13 -37 -5 -122 -95 -101 -107 -264 -226 -415 -305 -125 -65 -388
-101 -507 -69 -40 10 -59 12 -67 4 -8 -8 -11 -6 -11 5 0 9 -9 23 -20 31 -11 8
-17 17 -13 20 3 4 2 7 -4 7 -6 0 -21 41 -33 90 -20 81 -40 124 -40 87 0 -17
-28 -43 -37 -34 -3 4 1 17 10 30 16 25 20 46 18 87 l-2 25 -20 -27 c-22 -30
-59 -38 -59 -12 0 8 7 22 15 30 12 12 12 19 2 34 -11 19 -12 19 -19 0 -11 -29
-19 -25 -16 7 2 18 -2 28 -11 28 -7 0 -24 29 -37 64 -27 71 -30 91 -12 73 20
-20 58 -15 58 8 0 38 -22 72 -44 66 -21 -6 -27 0 -113 107 -30 38 -57 66 -60
63 -3 -3 10 -29 29 -58 42 -64 68 -115 61 -122 -3 -2 -18 20 -33 50 -42 80
-99 164 -138 205 -33 36 -34 36 -65 21 -43 -20 -78 -53 -70 -65 4 -6 0 -8 -10
-4 -13 5 -15 2 -8 -16 30 -82 23 -80 -71 15 -127 129 -241 200 -406 252 -69
22 -100 26 -185 25 -56 -1 -113 -3 -127 -5z m884 -736 c19 -622 19 -618 2
-618 -23 0 -25 28 -31 423 -3 197 -6 361 -6 365 -3 16 2 22 15 22 11 0 15 -38
20 -192z m4346 182 c0 -5 -4 -10 -10 -10 -5 0 -10 5 -10 10 0 6 5 10 10 10 6
0 10 -4 10 -10z m86 -36 c-4 -12 -2 -15 9 -10 12 4 15 -3 14 -37 0 -23 -3 -35
-6 -27 -3 8 -10 17 -14 20 -15 10 -23 70 -9 70 7 0 10 -7 6 -16z m-4546 -14
c0 -5 -5 -10 -11 -10 -5 0 -7 5 -4 10 3 6 8 10 11 10 2 0 4 -4 4 -10z m4500 0
c0 -5 -2 -10 -4 -10 -3 0 -8 5 -11 10 -3 6 -1 10 4 10 6 0 11 -4 11 -10z
m-220 -34 c0 -8 -6 -17 -12 -19 -10 -4 -9 -8 2 -16 13 -9 13 -11 -2 -11 -20 0
-21 4 -12 38 7 24 24 30 24 8z m240 -7 c0 -5 -4 -9 -10 -9 -5 0 -10 7 -10 16
0 8 5 12 10 9 6 -3 10 -10 10 -16z m-4501 -142 c0 -51 3 -153 5 -227 2 -96 1
-112 -3 -55 -4 44 -9 67 -11 50 -5 -44 -17 103 -19 227 -1 87 2 106 13 102 10
-4 14 -29 15 -97z m41 81 c1 -53 11 -387 15 -490 8 -206 -11 -147 -23 75 -15
250 -16 427 -2 427 6 0 10 -6 10 -12z m132 -81 c7 -56 -7 -64 -16 -9 -3 20 -9
48 -13 62 -6 22 -5 23 9 10 8 -9 17 -37 20 -63z m10 -114 c8 -10 5 -13 -16
-11 -21 2 -26 8 -26 29 0 35 12 45 23 17 4 -12 13 -28 19 -35z m4428 -4 c0 -5
-4 -9 -10 -9 -5 0 -10 7 -10 16 0 8 5 12 10 9 6 -3 10 -10 10 -16z m-4799 -8
l21 -19 -33 -18 c-42 -21 -104 -68 -144 -109 l-30 -30 -3 44 c-3 39 1 48 35
84 62 65 118 82 154 48z m537 -6 c1 -1 -5 -54 -13 -116 -9 -63 -19 -136 -22
-162 -5 -47 -6 -48 -37 -45 -31 3 -31 3 -28 58 3 68 22 250 28 268 3 10 13 12
36 7 18 -4 34 -8 36 -10z m-191 -37 c-3 -8 -6 -5 -6 6 -1 11 2 17 5 13 3 -3 4
-12 1 -19z m4448 3 c3 -11 13 -22 21 -25 8 -3 12 -11 9 -17 -4 -6 2 -13 14
-16 31 -8 25 -23 -9 -23 -17 0 -39 9 -51 21 -12 12 -33 22 -48 23 -29 1 -78
32 -68 42 12 13 77 -6 77 -23 0 -13 3 -13 15 -3 8 7 15 19 15 26 0 21 18 17
25 -5z m-4432 -125 c5 5 7 -15 6 -44 -2 -29 -7 -56 -12 -59 -6 -4 -8 2 -5 15
4 15 2 19 -8 15 -11 -4 -14 12 -13 88 l1 94 12 -58 c6 -33 15 -55 19 -51z m31
47 c4 -27 2 -43 -4 -43 -5 0 -10 9 -10 21 0 11 -5 29 -10 40 -11 20 -3 47 10
32 4 -4 10 -27 14 -50z m-434 22 c-7 -8 -17 -15 -22 -15 -6 0 -5 7 2 15 7 8
17 15 22 15 6 0 5 -7 -2 -15z m4695 -15 c4 -16 11 -32 16 -36 10 -6 39 -70 39
-85 0 -21 -19 -6 -31 24 -7 17 -21 44 -31 59 -19 28 -24 68 -9 68 5 0 12 -13
16 -30z m-2320 -52 c-11 -36 -25 -45 -25 -17 0 27 7 39 22 39 5 0 6 -10 3 -22z
m92 -140 c-3 -8 -6 -5 -6 6 -1 11 2 17 5 13 3 -3 4 -12 1 -19z m2323 -3 c0 -8
-7 -15 -16 -15 -14 0 -14 3 -4 15 7 8 14 15 16 15 2 0 4 -7 4 -15z m-4543 -77
c-2 -13 -4 -3 -4 22 0 25 2 35 4 23 2 -13 2 -33 0 -45z m-1290 -25 c-3 -10 -5
-4 -5 12 0 17 2 24 5 18 2 -7 2 -21 0 -30z m3870 15 c-3 -8 -6 -5 -6 6 -1 11
2 17 5 13 3 -3 4 -12 1 -19z m-282 2 c3 -5 1 -10 -4 -10 -6 0 -11 5 -11 10 0
6 2 10 4 10 3 0 8 -4 11 -10z m1935 -95 c0 -12 -19 -12 -23 0 -4 9 -1 12 9 8
7 -3 14 -7 14 -8z m-5395 -5 c3 -5 15 -10 26 -10 12 0 19 -7 19 -19 0 -10 7
-22 16 -25 10 -4 13 -13 9 -26 -4 -14 -1 -22 10 -26 13 -5 15 -14 11 -36 -5
-25 -3 -27 12 -19 16 9 75 11 66 2 -2 -2 4 -10 14 -18 12 -10 14 -16 5 -19
-18 -8 -16 -33 1 -40 8 -3 18 -20 22 -37 7 -29 9 -25 15 32 5 35 10 66 13 69
3 3 17 0 30 -6 17 -7 29 -27 42 -69 18 -55 19 -57 25 -28 4 17 7 50 8 76 1 47
14 69 41 69 28 0 38 -19 29 -58 -4 -20 -10 -63 -14 -95 -9 -86 -22 -148 -33
-159 -19 -19 -47 2 -65 47 -11 25 -22 45 -26 45 -4 0 -7 -18 -8 -40 -1 -21 -7
-48 -13 -60 -13 -25 -48 -26 -57 -2 -3 9 -14 35 -23 57 -9 22 -28 67 -41 100
-28 73 -40 90 -59 90 -9 0 -16 11 -18 28 -4 29 -11 34 -30 15 -9 -9 -12 -9
-12 0 0 7 -5 12 -10 12 -7 0 -7 -6 0 -19 12 -24 13 -31 1 -31 -5 0 -13 10 -17
23 -4 12 -10 24 -14 27 -4 3 -10 17 -14 33 -7 30 9 38 19 8 6 -19 39 -34 49
-23 3 3 -9 19 -27 37 -23 23 -32 41 -34 68 -2 36 17 52 32 27z m120 -21 c3 -9
3 -24 -1 -33 -3 -9 -1 -16 5 -16 6 0 11 -14 11 -31 0 -17 -4 -28 -10 -24 -5 3
-10 15 -10 26 0 11 -13 34 -30 51 -16 16 -30 34 -30 39 0 16 60 6 65 -12z
m1365 -1 c-1 -19 -36 -93 -77 -162 -78 -130 -247 -309 -360 -382 -59 -39 -73
-42 -73 -16 0 11 23 34 58 58 65 44 217 191 253 245 13 20 47 70 75 110 28 41
54 81 58 89 18 39 33 59 39 53 4 -3 7 -1 7 5 0 7 5 12 10 12 6 0 10 -6 10 -12z
m-1520 -14 c0 -9 -7 -14 -17 -12 -25 5 -28 28 -4 28 12 0 21 -6 21 -16z m5854
-9 c9 -14 13 -25 9 -25 -12 1 -46 50 -35 50 6 0 17 -11 26 -25z m-4141 -112
c9 -21 30 -72 48 -113 17 -41 35 -79 39 -85 4 -5 13 -36 20 -67 7 -32 17 -58
21 -58 5 0 13 -18 19 -40 12 -46 -2 -86 -66 -172 -30 -42 -39 -48 -70 -48 -38
0 -94 27 -94 45 1 5 7 21 14 35 10 17 11 30 5 42 -5 10 -7 28 -4 41 6 21 3 24
-24 24 -37 0 -45 -24 -25 -74 16 -36 14 -50 -5 -38 -6 3 -11 18 -11 33 0 21
-2 24 -10 12 -5 -8 -10 -31 -10 -50 0 -39 -18 -74 -27 -52 -2 6 -16 12 -29 12
-14 0 -24 6 -24 14 0 8 -3 22 -7 32 -4 12 -3 15 5 10 7 -4 12 -1 12 8 0 9 -8
16 -18 16 -22 0 -42 56 -42 119 0 22 -4 41 -9 41 -13 0 14 71 38 98 11 13 25
21 31 17 6 -4 10 6 10 24 0 17 4 31 9 31 13 0 17 -9 25 -52 7 -36 5 -38 -19
-38 -18 0 -25 -5 -25 -20 0 -21 33 -60 50 -60 6 0 10 -18 10 -40 0 -22 -4 -40
-10 -40 -5 0 -10 -18 -10 -40 0 -22 5 -40 10 -40 6 0 10 18 10 40 0 22 5 40
10 40 6 0 10 -5 10 -12 0 -6 6 -4 13 6 7 9 19 16 27 14 26 -6 22 32 -12 105
-18 39 -36 73 -40 75 -5 2 -8 11 -8 20 0 10 -7 36 -15 59 -17 49 -14 62 26
104 25 27 33 30 73 26 25 -2 43 0 40 5 -6 9 4 28 15 28 4 0 15 -17 24 -37z
m-1191 -118 c6 -14 8 -28 4 -32 -10 -10 -50 33 -42 46 11 18 26 13 38 -14z
m-362 -47 c0 -3 -9 -4 -20 -1 -16 4 -18 8 -9 20 10 11 14 11 20 1 5 -7 9 -16
9 -20z m-14 -35 c-7 -7 -26 7 -26 19 0 6 6 6 15 -2 9 -7 13 -15 11 -17z m3901
-119 c-3 -3 -12 -4 -19 -1 -8 3 -5 6 6 6 11 1 17 -2 13 -5z m53 -4 c0 -5 -4
-10 -10 -10 -5 0 -10 5 -10 10 0 6 5 10 10 10 6 0 10 -4 10 -10z m-2693 -32
c-3 -8 -6 -5 -6 6 -1 11 2 17 5 13 3 -3 4 -12 1 -19z m733 -193 c0 -22 6 -51
13 -65 12 -22 11 -28 -8 -48 l-21 -22 -22 23 c-12 13 -26 38 -31 55 -8 26 -5
38 21 78 34 54 48 48 48 -21z m-201 10 c6 -3 11 -19 11 -35 0 -16 7 -35 15
-44 8 -8 15 -21 14 -28 0 -10 -2 -10 -6 0 -2 6 -13 12 -23 12 -25 0 -27 5 -34
80 -3 42 -2 57 4 44 5 -12 13 -25 19 -29z m-342 -23 c7 -8 11 -17 8 -20 -9 -9
-34 31 -34 53 1 19 2 19 6 1 3 -11 12 -26 20 -34z m1148 29 c-3 -5 -31 -15
-63 -21 -31 -6 -66 -14 -77 -16 -18 -4 -18 -4 -3 6 9 6 45 17 80 24 35 8 64
14 66 15 2 1 1 -3 -3 -8z m-1172 -54 c3 -8 1 -20 -4 -28 -6 -10 -9 -7 -9 14 0
29 5 35 13 14z m3471 -98 c-4 -6 -11 -6 -20 2 -10 8 -14 8 -14 0 0 -6 -5 -11
-10 -11 -6 0 -5 8 2 19 9 15 16 17 30 10 10 -6 16 -14 12 -20z m-3424 7 c0 -8
-5 -18 -10 -21 -13 -8 -42 14 -34 26 9 15 44 10 44 -5z m8 -48 c-6 -18 -28
-21 -28 -4 0 9 7 16 16 16 9 0 14 -5 12 -12z m4012 -27 c0 -5 -7 -14 -15 -21
-8 -6 -14 -15 -13 -18 2 -20 -4 -30 -25 -39 -18 -8 -27 -7 -45 8 l-23 18 31
34 c16 19 30 40 30 46 0 8 10 6 30 -4 17 -9 30 -19 30 -24z"/>
<path d="M2212 581 c-21 -18 -30 -51 -14 -51 10 0 46 60 40 66 -3 2 -15 -4
-26 -15z"/>
<path d="M359 2367 c6 -8 9 -17 6 -21 -3 -3 0 -2 6 3 12 10 4 31 -13 31 -7 0
-7 -4 1 -13z"/>
<path d="M1750 2377 c0 -2 14 -16 30 -32 36 -34 40 -27 6 9 -20 23 -36 32 -36
23z"/>
<path d="M5780 2376 c0 -3 15 -15 33 -27 l32 -22 -27 27 c-25 24 -38 32 -38
22z"/>
<path d="M195 2340 c-16 -17 -16 -20 -3 -15 9 4 19 13 22 21 7 19 2 18 -19 -6z"/>
<path d="M2224 2308 c-29 -44 -37 -71 -43 -143 -3 -47 -1 -109 6 -150 20 -118
72 -257 109 -292 13 -12 24 -27 24 -33 0 -5 6 -10 14 -10 24 0 28 -18 11 -43
-15 -24 -15 -25 25 -41 22 -9 48 -16 58 -16 9 0 44 -18 77 -40 33 -22 66 -40
73 -40 7 0 10 -5 6 -11 -7 -11 -23 -11 -224 4 -15 1 -26 -4 -28 -14 -6 -30 99
-43 298 -36 239 9 304 31 432 143 50 44 53 53 24 64 -39 14 -33 49 14 98 38
38 52 72 30 72 -19 0 -10 38 11 43 15 4 19 2 15 -9 -8 -20 0 -18 25 7 l21 21
-21 -7 c-15 -4 -21 -2 -21 9 0 8 5 18 10 21 25 15 -6 106 -49 147 -17 15 -19
26 -15 61 5 32 2 47 -9 59 -9 8 -24 30 -35 47 l-20 33 3 -77 c2 -42 5 -79 8
-82 8 -7 -3 -33 -14 -33 -5 0 -9 18 -9 39 0 51 -33 128 -57 133 -30 6 -88 -19
-85 -36 2 -13 -7 -16 -43 -16 -33 0 -45 -4 -45 -15 0 -11 -11 -15 -41 -15 -24
0 -38 -4 -34 -10 3 -6 -1 -7 -9 -4 -9 4 -18 -1 -22 -10 -3 -9 -17 -16 -30 -16
-27 0 -59 -27 -69 -60 -5 -15 -10 -19 -17 -12 -8 8 -19 7 -37 -3 -24 -12 -74
-13 -151 -2 -14 2 -25 10 -25 18 0 8 -17 18 -39 24 -55 15 -59 35 -7 28 52 -7
54 11 4 32 -61 26 -70 38 -70 106 -1 62 -13 92 -29 67z m791 -437 c-2 -5 -17
-11 -32 -14 l-27 -5 24 18 c23 18 46 18 35 1z m-53 -93 c-7 -7 -12 -8 -12 -2
0 14 12 26 19 19 2 -3 -1 -11 -7 -17z m98 -152 c0 -3 -4 -8 -10 -11 -5 -3 -10
-1 -10 4 0 6 5 11 10 11 6 0 10 -2 10 -4z"/>
<path d="M1 2223 l1 -68 14 34 c12 26 13 40 4 67 -7 19 -13 34 -16 34 -2 0 -4
-30 -3 -67z"/>
<path d="M2391 2218 c-14 -39 -14 -78 -1 -78 6 0 10 7 10 15 0 19 4 19 43 -2
18 -9 46 -15 62 -14 37 4 35 2 29 27 -4 16 -12 19 -36 16 -23 -4 -29 -2 -23 8
5 9 4 11 -4 6 -12 -8 -71 14 -71 26 0 3 8 8 18 10 16 3 16 4 0 10 -12 5 -19
-1 -27 -24z"/>
<path d="M275 2230 c-3 -6 1 -7 9 -4 18 7 21 14 7 14 -6 0 -13 -4 -16 -10z"/>
<path d="M2340 2224 c0 -12 -7 -15 -23 -12 -22 4 -23 3 -14 -23 9 -23 42 -49
63 -49 3 0 3 17 0 38 -3 20 -5 43 -6 50 0 18 -20 15 -20 -4z"/>
<path d="M653 2194 c4 -23 2 -25 -22 -20 -21 5 -23 4 -8 -4 23 -15 22 -30 -3
-30 -27 0 -125 -56 -112 -64 5 -3 15 1 22 9 7 8 21 15 31 15 10 0 38 11 63 24
25 13 51 26 57 28 8 3 7 13 -5 36 -20 39 -30 41 -23 6z"/>
<path d="M3380 2170 c-9 -6 -10 -10 -3 -10 6 0 15 5 18 10 8 12 4 12 -15 0z"/>
<path d="M3625 2080 c-4 -22 0 -52 9 -79 28 -78 15 -153 -36 -215 -36 -44 -52
-47 -31 -5 20 40 28 146 14 183 -16 41 -19 30 -11 -44 7 -60 5 -70 -27 -139
-60 -130 -78 -196 -49 -185 8 3 22 -8 34 -28 18 -27 19 -35 8 -43 -8 -6 -17
-38 -21 -70 -10 -89 -25 -123 -82 -195 -28 -35 -50 -66 -48 -68 8 -8 46 21 71
53 34 45 84 168 78 192 -3 11 5 36 18 55 17 27 34 39 68 48 25 7 90 27 145 46
96 32 98 34 55 35 -36 0 -41 2 -25 10 17 8 16 9 -5 4 -32 -8 -39 -8 -72 -7
-26 2 -28 5 -28 42 0 22 5 40 10 40 6 0 10 18 10 40 0 28 -4 40 -14 40 -17 0
-29 41 -19 66 4 12 3 15 -5 10 -14 -8 -4 26 11 35 4 3 2 12 -5 20 -18 19 -41
114 -33 138 3 11 2 28 -4 38 -8 15 -10 12 -16 -17z m142 -475 c-5 -13 -59 -13
-64 1 -2 6 11 10 32 10 19 -1 33 -5 32 -11z"/>
<path d="M76 1965 c-9 -26 -7 -32 5 -12 6 10 9 21 6 23 -2 3 -7 -2 -11 -11z"/>
<path d="M3510 1955 c-3 -6 -3 -48 0 -95 l5 -85 9 57 c8 52 -3 147 -14 123z"/>
<path d="M3374 1937 c-6 -7 -52 -50 -103 -96 -83 -77 -103 -106 -74 -106 20 0
203 177 203 196 0 22 -10 24 -26 6z"/>
<path d="M2186 1852 c3 -18 1 -39 -5 -46 -9 -10 -8 -15 5 -20 9 -4 19 -4 22
-1 3 3 1 5 -5 5 -6 0 -8 10 -6 23 2 12 -1 33 -6 47 -10 23 -11 22 -5 -8z"/>
<path d="M341 1854 c0 -11 3 -14 6 -6 3 7 2 16 -1 19 -3 4 -6 -2 -5 -13z"/>
<path d="M5245 1770 c3 -5 17 -10 31 -10 13 0 24 5 24 10 0 6 -14 10 -31 10
-17 0 -28 -4 -24 -10z"/>
<path d="M4102 1740 c-12 -10 -52 -28 -88 -40 -36 -12 -63 -24 -61 -27 6 -6
148 37 164 50 7 5 19 7 26 4 8 -3 20 -1 28 4 11 7 9 9 -8 9 -13 0 -23 5 -23
10 0 15 -12 12 -38 -10z"/>
<path d="M5310 1750 c0 -5 5 -10 10 -10 6 0 10 5 10 10 0 6 -4 10 -10 10 -5 0
-10 -4 -10 -10z"/>
<path d="M636 1706 c30 -53 39 -58 31 -16 -5 22 -3 28 7 24 8 -3 16 -14 19
-25 4 -16 12 -18 47 -15 59 6 77 26 23 26 -26 0 -48 6 -58 17 -10 9 -27 17
-39 18 -11 1 -29 5 -38 10 -15 6 -13 -1 8 -39z"/>
<path d="M3487 1743 c-4 -3 -7 -13 -7 -21 0 -12 3 -12 15 -2 8 7 15 16 15 21
0 11 -14 12 -23 2z"/>
<path d="M6095 1700 c4 -6 11 -8 16 -5 14 9 11 15 -7 15 -8 0 -12 -5 -9 -10z"/>
<path d="M1405 1660 c3 -5 13 -10 21 -10 8 0 12 5 9 10 -3 6 -13 10 -21 10 -8
0 -12 -4 -9 -10z"/>
<path d="M3338 1593 c-47 -43 -104 -91 -129 -107 -24 -16 -57 -38 -74 -50
-200 -137 -266 -163 -448 -178 -121 -9 -133 -8 -187 11 -71 26 -105 28 -96 4
4 -9 1 -20 -5 -24 -8 -4 -4 -9 11 -14 15 -5 25 -2 31 6 7 11 21 10 77 -10 91
-31 158 -23 367 41 174 53 225 82 405 227 75 59 166 171 141 171 -5 0 -47 -35
-93 -77z"/>
<path d="M6130 1640 c0 -5 5 -10 10 -10 6 0 10 -10 10 -22 0 -27 5 -21 14 17
5 22 4 26 -4 15 -6 -10 -10 -11 -10 -2 0 6 -4 12 -10 12 -5 0 -10 -4 -10 -10z"/>
<path d="M5013 1594 l-28 -26 33 18 c17 10 32 22 32 26 0 13 -7 9 -37 -18z"/>
<path d="M3424 1533 c-11 -16 -23 -35 -26 -44 -7 -17 -99 -92 -159 -128 -34
-21 -144 -75 -250 -124 -31 -14 -97 -40 -148 -57 -80 -28 -98 -31 -134 -22
-23 5 -70 7 -105 5 -62 -5 -62 -6 -45 -25 16 -18 27 -19 143 -14 102 5 141 12
212 35 47 17 95 35 105 40 10 6 54 27 98 47 141 65 205 112 262 196 52 77 76
118 70 118 -2 0 -12 -12 -23 -27z"/>
<path d="M4550 1543 c0 -6 8 -17 18 -24 16 -13 16 -13 2 6 -8 11 -16 22 -17
24 -2 2 -3 0 -3 -6z"/>
<path d="M4138 1533 c7 -3 16 -2 19 1 4 3 -2 6 -13 5 -11 0 -14 -3 -6 -6z"/>
<path d="M5188 1512 c-62 -35 -94 -70 -79 -85 8 -8 11 -8 11 0 0 6 8 13 18 17
9 3 23 9 30 12 7 3 12 -1 12 -9 0 -9 -6 -17 -12 -20 -7 -2 -10 -7 -6 -11 3 -4
16 1 28 11 66 55 63 50 44 61 -16 9 -15 11 4 21 24 13 30 32 10 30 -7 -1 -34
-13 -60 -27z"/>
<path d="M757 1513 c-4 -3 -7 -21 -7 -39 0 -28 5 -35 26 -40 28 -7 38 0 48 32
11 35 -43 72 -67 47z m35 -28 c0 -5 -5 -11 -11 -13 -6 -2 -11 4 -11 13 0 9 5
15 11 13 6 -2 11 -8 11 -13z"/>
<path d="M5756 1491 c-5 -7 8 -11 41 -11 63 0 121 -21 155 -56 16 -15 28 -23
28 -17 0 5 -11 20 -25 33 -13 12 -22 28 -18 33 4 6 0 8 -10 4 -9 -3 -17 -1
-19 5 -5 15 -143 24 -152 9z"/>
<path d="M3453 1439 c-7 -19 -51 -73 -97 -122 -83 -86 -87 -88 -228 -151 -141
-62 -172 -73 -233 -82 -16 -2 -64 -13 -105 -22 l-75 -18 78 -8 c60 -5 84 -3
110 8 17 9 77 31 132 50 155 52 184 64 240 101 90 60 203 213 193 262 -2 10
-8 2 -15 -18z"/>
<path d="M3583 1408 c-31 -19 -46 -58 -22 -58 18 0 69 40 69 55 0 23 -13 23
-47 3z"/>
<path d="M667 1403 c-11 -10 -8 -51 3 -58 6 -4 10 8 10 29 0 37 -2 41 -13 29z"/>
<path d="M401 1374 c0 -11 3 -14 6 -6 3 7 2 16 -1 19 -3 4 -6 -2 -5 -13z"/>
<path d="M542 1375 c-11 -13 -10 -15 7 -15 14 0 19 5 15 15 -7 18 -6 18 -22 0z"/>
<path d="M6000 1374 c0 -3 9 -17 20 -31 11 -14 20 -20 20 -12 -1 23 -40 66
-40 43z"/>
<path d="M1140 1305 c0 -11 5 -27 10 -35 8 -12 10 -12 10 5 0 11 -5 27 -10 35
-8 12 -10 12 -10 -5z"/>
<path d="M526 1277 c-26 -19 -18 -77 11 -88 21 -7 22 -6 11 11 -10 16 -10 23
3 35 14 14 16 14 16 1 0 -8 -4 -13 -9 -10 -4 3 -8 0 -8 -7 0 -8 10 -9 30 -5
19 3 29 2 25 -4 -3 -6 -13 -10 -21 -10 -8 0 -14 -5 -14 -11 0 -6 7 -8 16 -5 9
3 19 6 24 6 15 0 40 31 40 50 0 10 -7 26 -16 34 -19 19 -83 21 -108 3z"/>
<path d="M930 1274 c0 -8 5 -12 10 -9 6 3 10 10 10 16 0 5 -4 9 -10 9 -5 0
-10 -7 -10 -16z"/>
<path d="M1100 1249 c0 -5 5 -7 10 -4 6 3 10 8 10 11 0 2 -4 4 -10 4 -5 0 -10
-5 -10 -11z"/>
<path d="M5787 1229 c7 -7 15 -10 18 -7 3 3 -2 9 -12 12 -14 6 -15 5 -6 -5z"/>
<path d="M1171 1214 c0 -11 3 -14 6 -6 3 7 2 16 -1 19 -3 4 -6 -2 -5 -13z"/>
<path d="M777 1190 c-21 -18 -21 -20 -7 -47 20 -36 55 -42 70 -13 28 51 -19
95 -63 60z m33 -20 c0 -5 -7 -10 -16 -10 -8 0 -12 5 -9 10 3 6 10 10 16 10 5
0 9 -4 9 -10z"/>
<path d="M5830 1191 c0 -6 4 -13 10 -16 6 -3 7 1 4 9 -7 18 -14 21 -14 7z"/>
<path d="M111 1147 c2 -1 13 -9 24 -17 19 -14 19 -14 6 3 -7 9 -18 17 -24 17
-6 0 -8 -1 -6 -3z"/>
<path d="M3230 1131 c-79 -41 -153 -91 -134 -91 40 0 100 23 141 53 69 52 64
75 -7 38z"/>
<path d="M30 1077 c0 -8 -7 -17 -15 -21 -8 -3 -15 -17 -15 -30 0 -18 4 -24 15
-20 8 4 15 11 15 17 0 6 7 18 15 27 14 15 14 18 0 30 -12 10 -15 10 -15 -3z"/>
<path d="M1288 1083 c7 -3 16 -2 19 1 4 3 -2 6 -13 5 -11 0 -14 -3 -6 -6z"/>
<path d="M1301 1054 c0 -11 3 -14 6 -6 3 7 2 16 -1 19 -3 4 -6 -2 -5 -13z"/>
<path d="M131 1044 c0 -11 3 -14 6 -6 3 7 2 16 -1 19 -3 4 -6 -2 -5 -13z"/>
<path d="M2905 1025 c-46 -17 -158 -35 -211 -35 -25 0 -46 7 -61 22 -13 12
-23 17 -23 11 0 -13 39 -48 75 -66 28 -14 42 -14 135 0 88 13 227 57 249 78
11 12 -128 3 -164 -10z"/>
<path d="M5816 1033 c-11 -11 -6 -23 9 -23 8 0 15 4 15 9 0 13 -16 22 -24 14z"/>
<path d="M3593 978 c-17 -18 -42 -52 -56 -74 -14 -23 -41 -52 -59 -65 -18 -13
-38 -28 -44 -34 -6 -5 -61 -44 -123 -85 -110 -73 -125 -95 -45 -67 55 19 182
104 226 152 130 141 156 165 179 165 24 0 49 16 49 32 0 4 -22 8 -48 8 -41 0
-52 -5 -79 -32z"/>
<path d="M3355 980 c-3 -6 1 -7 9 -4 18 7 21 14 7 14 -6 0 -13 -4 -16 -10z"/>
<path d="M5710 967 c0 -17 21 -57 30 -57 17 0 11 26 -10 45 -11 10 -20 15 -20
12z"/>
<path d="M5790 950 c0 -5 7 -10 16 -10 8 0 12 5 9 10 -3 6 -10 10 -16 10 -5 0
-9 -4 -9 -10z"/>
<path d="M0 917 c0 -6 125 -77 135 -77 15 0 -8 20 -50 44 -48 26 -85 41 -85
33z"/>
<path d="M276 771 c17 -16 201 -111 215 -111 8 0 -6 11 -32 24 -25 13 -76 40
-114 60 -68 36 -87 44 -69 27z"/>
<path d="M3855 770 c3 -5 8 -10 11 -10 2 0 4 5 4 10 0 6 -5 10 -11 10 -5 0 -7
-4 -4 -10z"/>
<path d="M5851 764 c0 -11 3 -14 6 -6 3 7 2 16 -1 19 -3 4 -6 -2 -5 -13z"/>
<path d="M0 742 c0 -4 42 -29 93 -54 50 -26 108 -56 127 -67 75 -43 280 -149
280 -144 0 12 -33 32 -140 87 -63 32 -119 62 -125 66 -5 4 -50 29 -100 55 -50
26 -94 52 -99 56 -12 11 -36 12 -36 1z"/>
<path d="M510 645 c0 -6 56 -35 67 -35 4 0 -5 9 -22 20 -29 19 -45 25 -45 15z"/>
<path d="M1360 601 c0 -6 4 -13 10 -16 6 -3 7 1 4 9 -7 18 -14 21 -14 7z"/>
<path d="M1175 580 c3 -5 8 -10 11 -10 2 0 4 5 4 10 0 6 -5 10 -11 10 -5 0 -7
-4 -4 -10z"/>
<path d="M1372 549 c2 -6 8 -10 13 -10 5 0 11 4 13 10 2 6 -4 11 -13 11 -9 0
-15 -5 -13 -11z"/>
<path d="M510 516 c0 -2 7 -7 16 -10 8 -3 12 -2 9 4 -6 10 -25 14 -25 6z"/>
<path d="M3052 479 c-13 -20 -12 -21 10 -16 12 4 50 7 83 7 68 1 51 15 -32 25
-42 6 -50 4 -61 -16z"/>
<path d="M5957 486 c-3 -8 -2 -18 3 -21 13 -8 24 15 12 27 -6 6 -11 4 -15 -6z"/>
<path d="M3233 473 c9 -2 23 -2 30 0 6 3 -1 5 -18 5 -16 0 -22 -2 -12 -5z"/>
<path d="M1374 394 c-3 -13 -4 -33 -1 -43 3 -13 -1 -21 -14 -24 -12 -3 -19 0
-19 9 0 8 -7 14 -15 14 -8 0 -15 -5 -15 -11 0 -6 -16 -29 -35 -50 -19 -22 -35
-34 -35 -28 0 5 -4 7 -10 4 -5 -3 -10 -13 -10 -21 0 -8 5 -12 10 -9 6 4 10 -5
10 -20 0 -33 28 -45 46 -19 7 10 18 24 24 31 5 7 10 15 10 19 0 18 53 74 70
74 25 0 36 18 16 26 -12 5 -13 11 -6 24 14 26 12 37 -5 44 -10 3 -17 -3 -21
-20z"/>
<path d="M1475 340 c2 -31 15 -37 15 -7 0 15 -4 27 -8 27 -5 0 -8 -9 -7 -20z"/>
<path d="M2350 179 c0 -5 5 -7 10 -4 6 3 10 8 10 11 0 2 -4 4 -10 4 -5 0 -10
-5 -10 -11z"/>
<path d="M2375 100 c3 -5 8 -10 11 -10 2 0 4 5 4 10 0 6 -5 10 -11 10 -5 0 -7
-4 -4 -10z"/>
<path d="M1541 62 c-1 -8 -9 -10 -26 -6 -26 7 -28 3 -19 -34 5 -18 13 -22 50
-22 45 0 60 14 25 23 -11 2 -21 15 -24 28 -2 13 -5 18 -6 11z"/>
<path d="M1604 40 c3 -14 6 -28 6 -32 0 -5 7 -8 15 -8 20 0 19 10 -6 40 l-21
25 6 -25z"/>
</g>
</svg>
